<svg width="29" height="28" viewBox="0 0 29 28" fill="none" xmlns="http://www.w3.org/2000/svg">
<path d="M25.0316 2.40331C24.1953 2.25927 23.3485 2.18512 22.4999 2.18165C19.6047 2.17927 16.7698 3.00948 14.3333 4.57331C11.8904 3.03001 9.05603 2.22018 6.1666 2.23998C5.31802 2.24346 4.47121 2.3176 3.63494 2.46165C3.36101 2.50887 3.11295 2.65235 2.93542 2.86624C2.75789 3.08013 2.66256 3.35037 2.6666 3.62831V17.6283C2.6641 17.7997 2.69942 17.9696 2.77003 18.1258C2.84064 18.2821 2.94481 18.4208 3.07514 18.5322C3.20546 18.6436 3.35874 18.7249 3.52405 18.7703C3.68937 18.8157 3.86266 18.8241 4.0316 18.795C5.70346 18.5055 7.41634 18.5535 9.06935 18.9362C10.7224 19.3189 12.2821 20.0286 13.6566 21.0233L13.7966 21.105H13.9249C14.0543 21.1589 14.1931 21.1866 14.3333 21.1866C14.4734 21.1866 14.6122 21.1589 14.7416 21.105H14.8699L15.0099 21.0233C16.3749 20.0063 17.9301 19.2737 19.5834 18.8689C21.2368 18.4641 22.9545 18.3953 24.6349 18.6666C24.8039 18.6958 24.9772 18.6874 25.1425 18.642C25.3078 18.5965 25.4611 18.5152 25.5914 18.4038C25.7217 18.2925 25.8259 18.1537 25.8965 17.9975C25.9671 17.8413 26.0024 17.6714 25.9999 17.5V3.49998C25.9878 3.23416 25.8851 2.98047 25.709 2.78101C25.5329 2.58154 25.2939 2.44827 25.0316 2.40331ZM13.1666 17.9083C11.0081 16.7728 8.60554 16.1801 6.1666 16.1816C5.7816 16.1816 5.3966 16.1816 4.99994 16.1816V4.51498C5.3885 4.49258 5.77804 4.49258 6.1666 4.51498C8.65555 4.51223 11.0902 5.24262 13.1666 6.61498V17.9083ZM23.6666 16.2283C23.2699 16.2283 22.8849 16.2283 22.4999 16.2283C20.061 16.2268 17.6584 16.8194 15.4999 17.955V6.61498C17.5764 5.24262 20.011 4.51223 22.4999 4.51498C22.8885 4.49258 23.278 4.49258 23.6666 4.51498V16.2283ZM25.0316 21.07C24.1953 20.9259 23.3485 20.8518 22.4999 20.8483C19.6047 20.8459 16.7698 21.6761 14.3333 23.24C11.8967 21.6761 9.06184 20.8459 6.1666 20.8483C5.31802 20.8518 4.47121 20.9259 3.63494 21.07C3.48307 21.0941 3.33746 21.148 3.20649 21.2285C3.07552 21.3091 2.96177 21.4148 2.87178 21.5395C2.78179 21.6641 2.71734 21.8054 2.68212 21.9551C2.64691 22.1047 2.64164 22.2599 2.6666 22.4116C2.72589 22.7146 2.90284 22.9817 3.15869 23.1545C3.41454 23.3272 3.72843 23.3915 4.0316 23.3333C5.70346 23.0438 7.41634 23.0919 9.06935 23.4746C10.7224 23.8573 12.2821 24.5669 13.6566 25.5616C13.8542 25.7023 14.0907 25.7779 14.3333 25.7779C14.5758 25.7779 14.8123 25.7023 15.0099 25.5616C16.3845 24.5669 17.9442 23.8573 19.5972 23.4746C21.2502 23.0919 22.9631 23.0438 24.6349 23.3333C24.9381 23.3915 25.252 23.3272 25.5078 23.1545C25.7637 22.9817 25.9406 22.7146 25.9999 22.4116C26.0249 22.2599 26.0196 22.1047 25.9844 21.9551C25.9492 21.8054 25.8847 21.6641 25.7948 21.5395C25.7048 21.4148 25.591 21.3091 25.46 21.2285C25.3291 21.148 25.1835 21.0941 25.0316 21.07Z" fill="#BDBDBD"/>
</svg>
