<svg width="28" height="29" viewBox="0 0 28 29" fill="none" xmlns="http://www.w3.org/2000/svg">
<path d="M24.6983 3.07003C23.8621 2.92599 23.0153 2.85184 22.1667 2.84836C19.2714 2.84599 16.4366 3.6762 14 5.24003C11.5572 3.69673 8.72278 2.8869 5.83335 2.9067C4.98477 2.91017 4.13796 2.98432 3.30168 3.12836C3.02776 3.17559 2.77969 3.31906 2.60217 3.53295C2.42464 3.74684 2.32931 4.01709 2.33335 4.29503V18.295C2.33085 18.4665 2.36616 18.6363 2.43678 18.7925C2.50739 18.9488 2.61156 19.0875 2.74189 19.1989C2.87221 19.3103 3.02548 19.3916 3.1908 19.437C3.35611 19.4824 3.52941 19.4909 3.69835 19.4617C5.37021 19.1722 7.08309 19.2203 8.73609 19.603C10.3891 19.9856 11.9488 20.6953 13.3234 21.69L13.4634 21.7717H13.5917C13.7211 21.8256 13.8598 21.8534 14 21.8534C14.1402 21.8534 14.279 21.8256 14.4084 21.7717H14.5367L14.6767 21.69C16.0416 20.673 17.5969 19.9404 19.2502 19.5356C20.9035 19.1308 22.6213 19.062 24.3017 19.3334C24.4706 19.3625 24.6439 19.3541 24.8092 19.3087C24.9746 19.2633 25.1278 19.182 25.2581 19.0706C25.3885 18.9592 25.4926 18.8204 25.5633 18.6642C25.6339 18.508 25.6692 18.3381 25.6667 18.1667V4.1667C25.6545 3.90088 25.5519 3.64719 25.3758 3.44772C25.1996 3.24826 24.9606 3.11499 24.6983 3.07003ZM12.8334 18.575C10.6749 17.4395 8.27229 16.8469 5.83335 16.8484C5.44835 16.8484 5.06335 16.8484 4.66668 16.8484V5.1817C5.05525 5.1593 5.44478 5.1593 5.83335 5.1817C8.3223 5.17895 10.7569 5.90934 12.8334 7.2817V18.575ZM23.3333 16.895C22.9367 16.895 22.5517 16.895 22.1667 16.895C19.7277 16.8935 17.3252 17.4862 15.1667 18.6217V7.2817C17.2431 5.90934 19.6777 5.17895 22.1667 5.1817C22.5552 5.1593 22.9448 5.1593 23.3333 5.1817V16.895ZM24.6983 21.7367C23.8621 21.5927 23.0153 21.5185 22.1667 21.515C19.2714 21.5127 16.4366 22.3429 14 23.9067C11.5635 22.3429 8.72859 21.5127 5.83335 21.515C4.98477 21.5185 4.13796 21.5927 3.30168 21.7367C3.14982 21.7608 3.00421 21.8147 2.87324 21.8953C2.74227 21.9758 2.62852 22.0815 2.53853 22.2062C2.44854 22.3309 2.38408 22.4721 2.34887 22.6218C2.31366 22.7715 2.30839 22.9266 2.33335 23.0784C2.39264 23.3813 2.56959 23.6484 2.82544 23.8212C3.08129 23.994 3.39518 24.0583 3.69835 24C5.37021 23.7106 7.08309 23.7586 8.73609 24.1413C10.3891 24.524 11.9488 25.2336 13.3234 26.2284C13.5209 26.369 13.7575 26.4446 14 26.4446C14.2426 26.4446 14.4791 26.369 14.6767 26.2284C16.0512 25.2336 17.6109 24.524 19.2639 24.1413C20.9169 23.7586 22.6298 23.7106 24.3017 24C24.6049 24.0583 24.9187 23.994 25.1746 23.8212C25.4304 23.6484 25.6074 23.3813 25.6667 23.0784C25.6916 22.9266 25.6864 22.7715 25.6512 22.6218C25.6159 22.4721 25.5515 22.3309 25.4615 22.2062C25.3715 22.0815 25.2578 21.9758 25.1268 21.8953C24.9958 21.8147 24.8502 21.7608 24.6983 21.7367Z" fill="#224497"/>
</svg>
