<svg width="20" height="20" viewBox="0 0 20 20" fill="none" xmlns="http://www.w3.org/2000/svg">
<path d="M15.8332 3.33317H14.1665V2.49984C14.1665 2.27882 14.0787 2.06686 13.9224 1.91058C13.7661 1.7543 13.5542 1.6665 13.3332 1.6665C13.1122 1.6665 12.9002 1.7543 12.7439 1.91058C12.5876 2.06686 12.4998 2.27882 12.4998 2.49984V3.33317H7.49984V2.49984C7.49984 2.27882 7.41204 2.06686 7.25576 1.91058C7.09948 1.7543 6.88752 1.6665 6.6665 1.6665C6.44549 1.6665 6.23353 1.7543 6.07725 1.91058C5.92097 2.06686 5.83317 2.27882 5.83317 2.49984V3.33317H4.1665C3.50346 3.33317 2.86758 3.59656 2.39874 4.0654C1.9299 4.53424 1.6665 5.17013 1.6665 5.83317V15.8332C1.6665 16.4962 1.9299 17.1321 2.39874 17.6009C2.86758 18.0698 3.50346 18.3332 4.1665 18.3332H15.8332C16.4962 18.3332 17.1321 18.0698 17.6009 17.6009C18.0698 17.1321 18.3332 16.4962 18.3332 15.8332V5.83317C18.3332 5.17013 18.0698 4.53424 17.6009 4.0654C17.1321 3.59656 16.4962 3.33317 15.8332 3.33317ZM16.6665 15.8332C16.6665 16.0542 16.5787 16.2661 16.4224 16.4224C16.2661 16.5787 16.0542 16.6665 15.8332 16.6665H4.1665C3.94549 16.6665 3.73353 16.5787 3.57725 16.4224C3.42097 16.2661 3.33317 16.0542 3.33317 15.8332V9.99984H16.6665V15.8332ZM16.6665 8.33317H3.33317V5.83317C3.33317 5.61216 3.42097 5.4002 3.57725 5.24392C3.73353 5.08764 3.94549 4.99984 4.1665 4.99984H5.83317V5.83317C5.83317 6.05418 5.92097 6.26615 6.07725 6.42243C6.23353 6.57871 6.44549 6.6665 6.6665 6.6665C6.88752 6.6665 7.09948 6.57871 7.25576 6.42243C7.41204 6.26615 7.49984 6.05418 7.49984 5.83317V4.99984H12.4998V5.83317C12.4998 6.05418 12.5876 6.26615 12.7439 6.42243C12.9002 6.57871 13.1122 6.6665 13.3332 6.6665C13.5542 6.6665 13.7661 6.57871 13.9224 6.42243C14.0787 6.26615 14.1665 6.05418 14.1665 5.83317V4.99984H15.8332C16.0542 4.99984 16.2661 5.08764 16.4224 5.24392C16.5787 5.4002 16.6665 5.61216 16.6665 5.83317V8.33317Z" fill="#224497"/>
</svg>
