<svg width="20" height="20" viewBox="0 0 20 20" fill="none" xmlns="http://www.w3.org/2000/svg">
<path d="M12.4998 9.1665H10.8332V5.83317C10.8332 5.61216 10.7454 5.4002 10.5891 5.24392C10.4328 5.08764 10.2209 4.99984 9.99984 4.99984C9.77883 4.99984 9.56687 5.08764 9.41059 5.24392C9.25431 5.4002 9.16651 5.61216 9.16651 5.83317V9.99984C9.16651 10.2209 9.25431 10.4328 9.41059 10.5891C9.56687 10.7454 9.77883 10.8332 9.99984 10.8332H12.4998C12.7209 10.8332 12.9328 10.7454 13.0891 10.5891C13.2454 10.4328 13.3332 10.2209 13.3332 9.99984C13.3332 9.77882 13.2454 9.56686 13.0891 9.41058C12.9328 9.2543 12.7209 9.1665 12.4998 9.1665ZM9.99984 1.6665C8.35166 1.6665 6.7405 2.15525 5.37009 3.07092C3.99968 3.9866 2.93158 5.28809 2.30084 6.81081C1.67011 8.33353 1.50509 10.0091 1.82663 11.6256C2.14817 13.2421 2.94185 14.727 4.10728 15.8924C5.27272 17.0578 6.75758 17.8515 8.37409 18.173C9.9906 18.4946 11.6662 18.3296 13.1889 17.6988C14.7116 17.0681 16.0131 16 16.9288 14.6296C17.8444 13.2592 18.3332 11.648 18.3332 9.99984C18.3332 8.90549 18.1176 7.82186 17.6988 6.81081C17.28 5.79976 16.6662 4.8811 15.8924 4.10728C15.1186 3.33346 14.1999 2.71963 13.1889 2.30084C12.1778 1.88205 11.0942 1.6665 9.99984 1.6665ZM9.99984 16.6665C8.6813 16.6665 7.39237 16.2755 6.29604 15.543C5.19971 14.8104 4.34523 13.7692 3.84064 12.5511C3.33606 11.3329 3.20404 9.99244 3.46127 8.69924C3.71851 7.40603 4.35345 6.21814 5.2858 5.28579C6.21815 4.35344 7.40603 3.7185 8.69924 3.46127C9.99245 3.20403 11.3329 3.33606 12.5511 3.84064C13.7692 4.34522 14.8104 5.19971 15.543 6.29604C16.2755 7.39236 16.6665 8.6813 16.6665 9.99984C16.6665 11.7679 15.9641 13.4636 14.7139 14.7139C13.4636 15.9641 11.768 16.6665 9.99984 16.6665Z" fill="#224497"/>
</svg>
