<svg width="29" height="28" viewBox="0 0 29 28" fill="none" xmlns="http://www.w3.org/2000/svg">
<path d="M8.83346 17.5002H12.3335C12.6429 17.5002 12.9396 17.3772 13.1584 17.1585C13.3772 16.9397 13.5001 16.6429 13.5001 16.3335C13.5001 16.0241 13.3772 15.7273 13.1584 15.5085C12.9396 15.2897 12.6429 15.1668 12.3335 15.1668H8.83346C8.52404 15.1668 8.22729 15.2897 8.0085 15.5085C7.78971 15.7273 7.66679 16.0241 7.66679 16.3335C7.66679 16.6429 7.78971 16.9397 8.0085 17.1585C8.22729 17.3772 8.52404 17.5002 8.83346 17.5002ZM22.8335 5.8335H6.50012C5.57186 5.8335 4.68163 6.20225 4.02525 6.85862C3.36887 7.515 3.00012 8.40524 3.00012 9.3335V19.8335C3.00012 20.7618 3.36887 21.652 4.02525 22.3084C4.68163 22.9647 5.57186 23.3335 6.50012 23.3335H22.8335C23.7617 23.3335 24.652 22.9647 25.3083 22.3084C25.9647 21.652 26.3335 20.7618 26.3335 19.8335V9.3335C26.3335 8.40524 25.9647 7.515 25.3083 6.85862C24.652 6.20225 23.7617 5.8335 22.8335 5.8335ZM24.0001 19.8335C24.0001 20.1429 23.8772 20.4397 23.6584 20.6585C23.4396 20.8772 23.1429 21.0002 22.8335 21.0002H6.50012C6.1907 21.0002 5.89396 20.8772 5.67516 20.6585C5.45637 20.4397 5.33346 20.1429 5.33346 19.8335V12.8335H24.0001V19.8335ZM24.0001 10.5002H5.33346V9.3335C5.33346 9.02408 5.45637 8.72733 5.67516 8.50854C5.89396 8.28975 6.1907 8.16683 6.50012 8.16683H22.8335C23.1429 8.16683 23.4396 8.28975 23.6584 8.50854C23.8772 8.72733 24.0001 9.02408 24.0001 9.3335V10.5002Z" fill="#BDBDBD"/>
</svg>
