<svg width="28" height="29" viewBox="0 0 28 29" fill="none" xmlns="http://www.w3.org/2000/svg">
<path d="M8.16683 17.8334H11.6668C11.9762 17.8334 12.273 17.7104 12.4918 17.4916C12.7106 17.2729 12.8335 16.9761 12.8335 16.6667C12.8335 16.3573 12.7106 16.0605 12.4918 15.8417C12.273 15.6229 11.9762 15.5 11.6668 15.5H8.16683C7.85741 15.5 7.56066 15.6229 7.34187 15.8417C7.12308 16.0605 7.00016 16.3573 7.00016 16.6667C7.00016 16.9761 7.12308 17.2729 7.34187 17.4916C7.56066 17.7104 7.85741 17.8334 8.16683 17.8334ZM22.1668 6.16669H5.8335C4.90524 6.16669 4.015 6.53544 3.35862 7.19181C2.70225 7.84819 2.3335 8.73843 2.3335 9.66669V20.1667C2.3335 21.0949 2.70225 21.9852 3.35862 22.6416C4.015 23.2979 4.90524 23.6667 5.8335 23.6667H22.1668C23.0951 23.6667 23.9853 23.2979 24.6417 22.6416C25.2981 21.9852 25.6668 21.0949 25.6668 20.1667V9.66669C25.6668 8.73843 25.2981 7.84819 24.6417 7.19181C23.9853 6.53544 23.0951 6.16669 22.1668 6.16669ZM23.3335 20.1667C23.3335 20.4761 23.2106 20.7729 22.9918 20.9916C22.773 21.2104 22.4762 21.3334 22.1668 21.3334H5.8335C5.52408 21.3334 5.22733 21.2104 5.00854 20.9916C4.78975 20.7729 4.66683 20.4761 4.66683 20.1667V13.1667H23.3335V20.1667ZM23.3335 10.8334H4.66683V9.66669C4.66683 9.35727 4.78975 9.06052 5.00854 8.84173C5.22733 8.62294 5.52408 8.50002 5.8335 8.50002H22.1668C22.4762 8.50002 22.773 8.62294 22.9918 8.84173C23.2106 9.06052 23.3335 9.35727 23.3335 9.66669V10.8334Z" fill="#224497"/>
</svg>
