<svg width="14" height="15" viewBox="0 0 14 15" fill="none" xmlns="http://www.w3.org/2000/svg">
<g opacity="0.4" clip-path="url(#clip0)">
<path d="M4.8125 5.98739H9.1875C9.42922 5.98739 9.625 5.79161 9.625 5.54989V5.11239C9.625 4.87067 9.42922 4.67489 9.1875 4.67489H4.8125C4.57078 4.67489 4.375 4.87067 4.375 5.11239V5.54989C4.375 5.79161 4.57078 5.98739 4.8125 5.98739ZM4.375 8.17489C4.375 8.41661 4.57078 8.61239 4.8125 8.61239H9.1875C9.42922 8.61239 9.625 8.41661 9.625 8.17489V7.73739C9.625 7.49567 9.42922 7.29989 9.1875 7.29989H4.8125C4.57078 7.29989 4.375 7.49567 4.375 7.73739V8.17489ZM7 11.487C6.55102 11.487 6.10203 11.3487 5.71867 11.0717L0 6.94059V12.7686C0 13.4935 0.587617 14.0811 1.3125 14.0811H12.6875C13.4124 14.0811 14 13.4935 14 12.7686V6.94059L8.28133 11.0717C7.89797 11.3484 7.44898 11.487 7 11.487ZM13.4971 4.5368C13.2552 4.34704 13.0257 4.16848 12.6875 3.91309V2.70614C12.6875 1.98126 12.0999 1.39364 11.375 1.39364H9.25449C9.17137 1.33348 9.09398 1.27715 9.00731 1.21426C8.54766 0.878756 7.63438 0.0715687 7 0.0811391C6.36562 0.0715687 5.45262 0.878756 4.9927 1.21426C4.90602 1.27715 4.82863 1.33348 4.74551 1.39364H2.625C1.90012 1.39364 1.3125 1.98126 1.3125 2.70614V3.91309C0.974258 4.16821 0.744844 4.34704 0.502852 4.5368C0.346215 4.65956 0.219547 4.81633 0.13243 4.99525C0.0453121 5.17418 2.69556e-05 5.37057 0 5.56958L0 5.86079L2.625 7.75708V2.70614H11.375V7.75708L14 5.86079V5.56958C14 5.16653 13.8146 4.78563 13.4971 4.5368Z" fill="white"/>
</g>
<defs>
<clipPath id="clip0">
<rect width="14" height="14" fill="white" transform="translate(0 0.0820312)"/>
</clipPath>
</defs>
</svg>
