<svg width="28" height="27" viewBox="0 0 28 27" fill="none" xmlns="http://www.w3.org/2000/svg">
<g clip-path="url(#clip0)">
<path d="M27.1451 7.78735C27.0831 6.37998 26.8555 5.41242 26.5294 4.57402C26.1931 3.68408 25.6757 2.88731 24.9978 2.22496C24.3354 1.5523 23.5334 1.02961 22.6538 0.698533C21.8105 0.372511 20.848 0.144921 19.4406 0.0828699C18.0227 0.0155634 17.5726 0 13.9765 0C10.3803 0 9.9302 0.0155634 8.51757 0.0776148C7.1102 0.139666 6.14264 0.367458 5.30444 0.693278C4.4143 1.02961 3.61753 1.54704 2.95518 2.22496C2.28252 2.88731 1.76003 3.68933 1.42876 4.56896C1.10273 5.41242 0.875146 6.37472 0.813094 7.7821C0.745788 9.19998 0.730225 9.65011 0.730225 13.2463C0.730225 16.8424 0.745788 17.2925 0.807839 18.7052C0.869891 20.1125 1.09768 21.0801 1.4237 21.9185C1.76003 22.8084 2.28252 23.6052 2.95518 24.2676C3.61753 24.9402 4.41955 25.4629 5.29919 25.794C6.14264 26.12 7.10494 26.3476 8.51252 26.4096C9.92494 26.4719 10.3753 26.4873 13.9714 26.4873C17.5676 26.4873 18.0177 26.4719 19.4303 26.4096C20.8377 26.3476 21.8053 26.12 22.6435 25.794C24.4235 25.1058 25.8309 23.6984 26.5191 21.9185C26.845 21.075 27.0727 20.1125 27.1348 18.7052C27.1968 17.2925 27.2124 16.8424 27.2124 13.2463C27.2124 9.65011 27.2072 9.19998 27.1451 7.78735ZM24.7599 18.6017C24.7029 19.8953 24.4856 20.5938 24.3045 21.0595C23.8594 22.2134 22.9436 23.1292 21.7897 23.5743C21.324 23.7554 20.6204 23.9727 19.3319 24.0295C17.9348 24.0917 17.5158 24.1071 13.9817 24.1071C10.4476 24.1071 10.0234 24.0917 8.63136 24.0295C7.33778 23.9727 6.63925 23.7554 6.17356 23.5743C5.59934 23.3621 5.07665 23.0257 4.6524 22.5859C4.21258 22.1564 3.87625 21.639 3.66402 21.0647C3.48292 20.599 3.26564 19.8953 3.20884 18.6069C3.14659 17.2099 3.13123 16.7907 3.13123 13.2566C3.13123 9.72247 3.14659 9.29821 3.20884 7.9064C3.26564 6.61282 3.48292 5.91429 3.66402 5.4486C3.87625 4.87417 4.21258 4.35168 4.65765 3.92723C5.08696 3.48741 5.60439 3.15108 6.17882 2.93905C6.64451 2.75795 7.3483 2.54067 8.63662 2.48367C10.0337 2.42162 10.4529 2.40606 13.9868 2.40606C17.5261 2.40606 17.9451 2.42162 19.3371 2.48367C20.6307 2.54067 21.3293 2.75795 21.7949 2.93905C22.3692 3.15108 22.8919 3.48741 23.3161 3.92723C23.7559 4.35674 24.0923 4.87417 24.3045 5.4486C24.4856 5.91429 24.7029 6.61787 24.7599 7.9064C24.8219 9.30347 24.8375 9.72247 24.8375 13.2566C24.8375 16.7907 24.8219 17.2046 24.7599 18.6017Z" fill="white"/>
<path d="M13.9763 6.44141C10.2199 6.44141 7.17212 9.489 7.17212 13.2456C7.17212 17.0023 10.2199 20.0499 13.9763 20.0499C17.733 20.0499 20.7806 17.0023 20.7806 13.2456C20.7806 9.489 17.733 6.44141 13.9763 6.44141ZM13.9763 17.6594C11.5394 17.6594 9.56261 15.6828 9.56261 13.2456C9.56261 10.8085 11.5394 8.8319 13.9763 8.8319C16.4135 8.8319 18.3901 10.8085 18.3901 13.2456C18.3901 15.6828 16.4135 17.6594 13.9763 17.6594V17.6594Z" fill="white"/>
<path d="M22.6386 6.17246C22.6386 7.04967 21.9273 7.76094 21.0499 7.76094C20.1727 7.76094 19.4614 7.04967 19.4614 6.17246C19.4614 5.29505 20.1727 4.58398 21.0499 4.58398C21.9273 4.58398 22.6386 5.29505 22.6386 6.17246V6.17246Z" fill="white"/>
</g>
<defs>
<clipPath id="clip0">
<rect width="26.4873" height="26.4873" fill="white" transform="translate(0.683594)"/>
</clipPath>
</defs>
</svg>
