<svg width="14" height="15" viewBox="0 0 14 15" fill="none" xmlns="http://www.w3.org/2000/svg">
<g opacity="0.4" clip-path="url(#clip0)">
<path d="M13.6005 9.97472L10.538 8.66223C10.4072 8.60647 10.2618 8.59472 10.1237 8.62875C9.98562 8.66278 9.86232 8.74074 9.77238 8.8509L8.41613 10.5079C6.28762 9.50436 4.57467 7.7914 3.57109 5.6629L5.22813 4.30665C5.33851 4.21688 5.41663 4.09358 5.45067 3.95544C5.48472 3.81729 5.47283 3.67181 5.4168 3.54103L4.1043 0.47854C4.0428 0.337558 3.93405 0.222452 3.79678 0.153068C3.65951 0.0836842 3.50233 0.0643726 3.35234 0.098463L0.508594 0.754711C0.363992 0.788103 0.234977 0.869521 0.142607 0.985679C0.0502374 1.10184 -3.33104e-05 1.24587 1.65599e-08 1.39428C1.65599e-08 8.40793 5.68477 14.0817 12.6875 14.0817C12.836 14.0818 12.9801 14.0316 13.0963 13.9392C13.2125 13.8468 13.2939 13.7178 13.3273 13.5731L13.9836 10.7294C14.0175 10.5787 13.9977 10.4209 13.9278 10.2831C13.8579 10.1454 13.7422 10.0363 13.6005 9.97472Z" fill="white"/>
</g>
<defs>
<clipPath id="clip0">
<rect width="14" height="14" fill="white" transform="translate(0 0.0820312)"/>
</clipPath>
</defs>
</svg>
