<svg width="13" height="18" viewBox="0 0 13 18" fill="none" xmlns="http://www.w3.org/2000/svg">
<g opacity="0.4" clip-path="url(#clip0)">
<path d="M5.83199 17.0657C0.913047 9.93464 0 9.20278 0 6.58203C0 2.99217 2.91014 0.0820312 6.5 0.0820312C10.0899 0.0820312 13 2.99217 13 6.58203C13 9.20278 12.087 9.93464 7.16801 17.0657C6.84521 17.532 6.15476 17.5319 5.83199 17.0657ZM6.5 9.29037C7.99578 9.29037 9.20833 8.07781 9.20833 6.58203C9.20833 5.08625 7.99578 3.8737 6.5 3.8737C5.00422 3.8737 3.79167 5.08625 3.79167 6.58203C3.79167 8.07781 5.00422 9.29037 6.5 9.29037Z" fill="white"/>
</g>
<defs>
<clipPath id="clip0">
<rect width="13" height="17.3333" fill="white" transform="translate(0 0.0820312)"/>
</clipPath>
</defs>
</svg>
