<svg width="28" height="28" viewBox="0 0 28 28" fill="none" xmlns="http://www.w3.org/2000/svg">
<path d="M3.05643 21.28C3.09626 21.429 3.16523 21.5686 3.25935 21.6908C3.35347 21.8129 3.47087 21.9152 3.60477 21.9917L9.67143 25.4917C9.80389 25.5693 9.95037 25.62 10.1025 25.6409C10.2546 25.6618 10.4093 25.6525 10.5578 25.6135C10.7063 25.5745 10.8456 25.5065 10.9678 25.4136C11.09 25.3206 11.1926 25.2044 11.2698 25.0717L13.9998 20.335L16.7298 25.0717C16.807 25.2044 16.9096 25.3206 17.0318 25.4136C17.1539 25.5065 17.2933 25.5745 17.4417 25.6135C17.5902 25.6525 17.745 25.6618 17.8971 25.6409C18.0492 25.62 18.1956 25.5693 18.3281 25.4917L24.3948 21.9917C24.5287 21.9152 24.6461 21.8129 24.7402 21.6908C24.8343 21.5686 24.9033 21.429 24.9431 21.28C25.0203 20.9843 24.9784 20.6702 24.8264 20.405L20.1598 12.4367C20.6804 11.4829 20.9682 10.4196 20.9998 9.33337C21.0025 8.2737 20.7647 7.22724 20.3042 6.27287C19.8437 5.31851 19.1725 4.48115 18.3412 3.82394C17.51 3.16673 16.5404 2.70682 15.5055 2.47888C14.4706 2.25095 13.3975 2.26094 12.3671 2.5081C11.3366 2.75526 10.3758 3.23314 9.5569 3.90571C8.73803 4.57828 8.08254 5.42798 7.63987 6.39076C7.19719 7.35353 6.97887 8.40424 7.00137 9.46367C7.02387 10.5231 7.28661 11.5636 7.76977 12.5067L3.21977 20.3934C3.13508 20.5229 3.07703 20.6681 3.04899 20.8203C3.02095 20.9725 3.02348 21.1288 3.05643 21.28ZM22.1664 20.5567L18.1298 22.89L14.3731 16.3334C15.9744 16.2344 17.4918 15.5829 18.6664 14.49L22.1664 20.5567ZM13.9998 4.6667C15.2374 4.6667 16.4244 5.15837 17.2996 6.03354C18.1748 6.90871 18.6664 8.09569 18.6664 9.33337C18.6664 10.571 18.1748 11.758 17.2996 12.6332C16.4244 13.5084 15.2374 14 13.9998 14C12.7621 14 11.5751 13.5084 10.6999 12.6332C9.82476 11.758 9.3331 10.571 9.3331 9.33337C9.3331 8.09569 9.82476 6.90871 10.6999 6.03354C11.5751 5.15837 12.7621 4.6667 13.9998 4.6667ZM9.3331 14.525C9.96651 15.1036 10.7025 15.5586 11.5031 15.8667L12.6464 18.0017L9.8231 22.89L5.78643 20.5567L9.3331 14.525Z" fill="#224497"/>
</svg>
