<svg width="28" height="28" viewBox="0 0 28 28" fill="none" xmlns="http://www.w3.org/2000/svg">
<path d="M3.05656 21.2801C3.09639 21.4291 3.16535 21.5687 3.25947 21.6908C3.35359 21.813 3.47099 21.9153 3.60489 21.9918L9.67156 25.4918C9.80402 25.5694 9.9505 25.6201 10.1026 25.641C10.2547 25.6619 10.4094 25.6526 10.5579 25.6136C10.7064 25.5745 10.8457 25.5066 10.9679 25.4136C11.0901 25.3206 11.1927 25.2045 11.2699 25.0718L13.9999 20.3351L16.7299 25.0718C16.8071 25.2045 16.9097 25.3206 17.0319 25.4136C17.1541 25.5066 17.2934 25.5745 17.4419 25.6135C17.5904 25.6526 17.7451 25.6619 17.8972 25.641C18.0493 25.6201 18.1958 25.5694 18.3282 25.4918L24.3949 21.9918C24.5288 21.9153 24.6462 21.813 24.7403 21.6908C24.8344 21.5687 24.9034 21.4291 24.9432 21.2801C25.0204 20.9844 24.9785 20.6702 24.8266 20.4051L20.1599 12.4368C20.6805 11.483 20.9683 10.4196 20.9999 9.33343C21.0027 8.27377 20.7648 7.2273 20.3043 6.27293C19.8438 5.31857 19.1726 4.48121 18.3413 3.824C17.5101 3.16679 16.5405 2.70688 15.5056 2.47895C14.4708 2.25101 13.3977 2.261 12.3672 2.50816C11.3368 2.75532 10.3759 3.2332 9.55702 3.90577C8.73815 4.57834 8.08267 5.42804 7.63999 6.39082C7.19731 7.35359 6.97899 8.4043 7.00149 9.46373C7.02399 10.5232 7.28673 11.5637 7.76989 12.5068L3.21989 20.3934C3.13521 20.523 3.07715 20.6681 3.04911 20.8203C3.02107 20.9726 3.0236 21.1289 3.05656 21.2801ZM22.1666 20.5568L18.1299 22.8901L14.3732 16.3334C15.9746 16.2345 17.492 15.583 18.6666 14.4901L22.1666 20.5568ZM13.9999 4.66676C15.2376 4.66676 16.4246 5.15843 17.2997 6.0336C18.1749 6.90877 18.6666 8.09575 18.6666 9.33343C18.6666 10.5711 18.1749 11.7581 17.2997 12.6333C16.4246 13.5084 15.2376 14.0001 13.9999 14.0001C12.7622 14.0001 11.5752 13.5084 10.7001 12.6333C9.82489 11.7581 9.33322 10.5711 9.33322 9.33343C9.33322 8.09575 9.82489 6.90877 10.7001 6.0336C11.5752 5.15843 12.7622 4.66676 13.9999 4.66676ZM9.33322 14.5251C9.96663 15.1036 10.7026 15.5587 11.5032 15.8668L12.6466 18.0018L9.82322 22.8901L5.78655 20.5568L9.33322 14.5251Z" fill="#BDBDBD"/>
</svg>
