<svg width="40" height="40" viewBox="0 0 40 40" fill="none" xmlns="http://www.w3.org/2000/svg">
<path d="M24.8569 2.85718C23.7524 2.85718 22.8569 3.75261 22.8569 4.85718V18.0001C22.8569 19.1046 23.7524 20.0001 24.8569 20.0001H33.2855C33.8378 20.0001 34.2901 20.4493 34.2422 20.9995C33.7921 26.1708 29.8829 30.367 24.8476 31.2551C23.7598 31.4469 22.8569 32.3241 22.8569 33.4286V35.1429C22.8569 36.2475 23.7563 37.1552 24.8535 37.0274C33.3694 36.0354 39.9998 28.778 39.9998 20.0001V4.85718C39.9998 3.75261 39.1044 2.85718 37.9998 2.85718H24.8569Z" fill="#C4C4C4"/>
<path d="M0 18.0001C0 19.1046 0.895431 20.0001 2 20.0001H10.4286C10.9808 20.0001 11.4331 20.4493 11.3852 20.9995C10.9351 26.1708 7.02596 30.367 1.99067 31.2551C0.902889 31.4469 0 32.3241 0 33.4286V35.1429C0 36.2475 0.899383 37.1552 1.99653 37.0274C10.5125 36.0354 17.1429 28.778 17.1429 20.0001V4.85718C17.1429 3.75261 16.2475 2.85718 15.1429 2.85718H2C0.89543 2.85718 0 3.75261 0 4.85718V18.0001Z" fill="#C4C4C4"/>
</svg>
