<svg width="30" height="30" viewBox="0 0 30 30" fill="none" xmlns="http://www.w3.org/2000/svg">
<path d="M23.3876 9.01245C23.2714 8.89529 23.1331 8.80229 22.9808 8.73883C22.8285 8.67537 22.6651 8.6427 22.5001 8.6427C22.335 8.6427 22.1717 8.67537 22.0193 8.73883C21.867 8.80229 21.7288 8.89529 21.6126 9.01245L12.3001 18.3374L8.38756 14.4124C8.26691 14.2959 8.12448 14.2043 7.96841 14.1428C7.81234 14.0812 7.64569 14.0511 7.47796 14.054C7.31024 14.0569 7.14472 14.0928 6.99088 14.1597C6.83703 14.2265 6.69786 14.323 6.58131 14.4437C6.46476 14.5644 6.37312 14.7068 6.31161 14.8628C6.25011 15.0189 6.21995 15.1856 6.22285 15.3533C6.22575 15.521 6.26166 15.6865 6.32853 15.8404C6.39539 15.9942 6.49191 16.1334 6.61256 16.2499L11.4126 21.0499C11.5288 21.1671 11.667 21.2601 11.8193 21.3236C11.9717 21.387 12.135 21.4197 12.3001 21.4197C12.4651 21.4197 12.6285 21.387 12.7808 21.3236C12.9331 21.2601 13.0714 21.1671 13.1876 21.0499L23.3876 10.8499C23.5144 10.7329 23.6157 10.5908 23.685 10.4327C23.7542 10.2746 23.79 10.1038 23.79 9.9312C23.79 9.75857 23.7542 9.58781 23.685 9.42969C23.6157 9.27157 23.5144 9.1295 23.3876 9.01245Z" fill="white"/>
</svg>
