<svg width="336" height="139" viewBox="0 0 336 139" fill="none" xmlns="http://www.w3.org/2000/svg">
<g clip-path="url(#clip0)">
<path d="M28.8578 36.8447L0 35.2432L28.8578 33.0009V36.8447Z" fill="white"/>
<path d="M29.499 31.7196L20.521 20.5081L32.0639 29.4772L29.499 31.7196Z" fill="white"/>
<path d="M33.6675 28.8366L34.9502 0.00732422L37.1948 28.8366H33.6675Z" fill="white"/>
<path d="M38.1562 29.4772L50.02 19.8676L40.7212 31.7196L38.1562 29.4772Z" fill="white"/>
<path d="M41.0425 33.3209L69.5795 34.6023L41.0425 36.8443V33.3209Z" fill="white"/>
<path d="M34.9502 40.0477C37.6064 40.0477 39.7597 37.8965 39.7597 35.2429C39.7597 32.5893 37.6064 30.4381 34.9502 30.4381C32.2939 30.4381 30.1406 32.5893 30.1406 35.2429C30.1406 37.8965 32.2939 40.0477 34.9502 40.0477Z" fill="#ED1C24"/>
<path d="M19.8799 41.9701H33.0263L30.4609 54.1426H25.331L19.8799 48.0563V41.9701Z" fill="white"/>
<path d="M50.02 41.9701H36.8735L39.4385 54.1426H44.5688L50.02 48.0563V41.9701Z" fill="white"/>
<path d="M24.6895 55.744H30.1406V123.333C28.7182 123.436 27.3678 123.998 26.2929 124.934C24.3691 126.536 22.4453 127.497 22.7661 124.294C23.4072 121.09 23.4072 120.129 22.4453 119.489C21.4834 119.168 20.2007 121.411 20.2007 121.411L24.6895 55.744Z" fill="#ED1C24"/>
<path d="M39.7598 125.575V55.744H45.5312L50.9824 126.856C49.5979 125.571 47.9596 124.589 46.1728 123.973C43.2866 123.012 41.6836 124.294 39.7598 125.575Z" fill="#ED1C24"/>
<path d="M28.8576 131.02C28.2164 131.661 24.048 132.942 22.4445 134.224C20.5207 135.505 17.9558 136.466 16.0315 136.466C14.4285 136.466 13.1458 135.185 14.7488 132.302C16.3519 129.419 16.6726 126.857 18.9173 124.294C21.1619 121.731 22.1238 121.09 22.4441 122.372C22.7649 123.973 22.1233 124.614 22.1233 126.216C22.1233 127.817 22.4441 128.138 24.6883 127.177C26.9325 126.216 27.2532 125.255 28.5359 125.255C29.8186 125.255 29.4978 124.934 30.7805 124.614C32.3836 123.974 32.7044 125.255 33.6663 126.536C34.949 127.817 35.5901 128.778 36.552 128.778C37.5139 128.778 38.1551 127.177 41.0408 126.216C43.9265 124.935 45.8503 125.576 49.0569 127.817C51.3368 129.34 53.4823 131.055 55.4699 132.943C56.7526 134.544 55.1491 135.185 54.1872 134.865C53.2253 134.544 52.2634 133.904 51.3015 131.661C50.3396 129.419 49.6984 129.099 47.7746 128.778C45.8508 128.458 44.2477 128.778 43.6062 129.739C42.9646 130.7 42.0031 131.341 41.0412 132.302C39.7594 133.262 38.4771 133.262 37.8356 134.864C36.8737 136.466 36.5529 136.466 34.3087 136.466C32.0641 136.145 31.1022 135.825 31.423 134.223C31.7437 132.621 32.0641 132.301 31.1022 131.661C30.1403 130.7 29.8195 130.379 28.8576 131.02Z" fill="#224497"/>
<path d="M85.1476 91.2306C85.1492 91.302 85.1363 91.3729 85.1097 91.4392C85.0831 91.5054 85.0433 91.5656 84.9928 91.6161C84.9423 91.6665 84.882 91.7063 84.8157 91.7328C84.7494 91.7594 84.6784 91.7723 84.607 91.7707H80.8247V56.6796H85.1476V91.2306Z" fill="white"/>
<path d="M121.895 89.611V90.6905L121.354 91.2306L120.813 91.7707H117.571C117.031 91.7707 117.031 91.2306 116.491 91.2306C115.951 91.2306 115.95 90.6905 115.41 90.1511C114.87 89.6118 114.869 89.0709 114.33 88.5316L102.981 68.0165L101.36 64.7774L99.739 61.5383V92.3108L99.1984 92.8509H95.956C95.8846 92.8525 95.8136 92.8396 95.7473 92.813C95.681 92.7865 95.6207 92.7467 95.5702 92.6963C95.5197 92.6458 95.4799 92.5856 95.4533 92.5194C95.4267 92.4531 95.4138 92.3822 95.4154 92.3108V58.8392C95.3791 58.5461 95.4088 58.2486 95.5024 57.9684C95.5959 57.6882 95.7509 57.4324 95.956 57.2197C96.2364 56.9117 96.6217 56.7191 97.0366 56.6796H100.279C100.82 56.6796 100.82 56.6796 101.359 57.2197C101.9 57.2197 101.9 57.7598 102.44 58.2991C102.44 58.8392 102.981 59.3786 103.521 59.9187L112.168 75.575C112.708 76.6545 113.248 77.1946 113.789 78.2741C114.33 79.3535 114.869 79.8936 115.41 80.9731C115.951 82.0526 116.491 82.5927 117.031 83.6721C117.572 84.7516 118.112 85.2917 118.112 86.3712V57.759L118.652 57.2189H121.895C121.966 57.2173 122.037 57.2302 122.104 57.2568C122.17 57.2834 122.23 57.3231 122.281 57.3736C122.331 57.4241 122.371 57.4842 122.397 57.5505C122.424 57.6167 122.437 57.6877 122.435 57.759V89.611H121.895Z" fill="white"/>
<path d="M153.779 58.2997V59.9193C153.78 59.9906 153.768 60.0616 153.741 60.1278C153.714 60.1941 153.675 60.2542 153.624 60.3047C153.574 60.3552 153.513 60.3949 153.447 60.4215C153.381 60.4481 153.31 60.461 153.238 60.4594H142.431V91.7713H138.107V60.4586H127.3L126.759 59.9185V56.6794C126.757 56.6081 126.77 56.5372 126.797 56.4711C126.824 56.4049 126.863 56.3448 126.914 56.2944C126.964 56.244 127.025 56.2044 127.091 56.1778C127.157 56.1513 127.228 56.1384 127.3 56.14H153.238L153.779 56.6801V58.2997Z" fill="white"/>
<path d="M178.637 89.6116V91.2312C178.639 91.3025 178.626 91.3735 178.599 91.4397C178.573 91.506 178.533 91.5662 178.482 91.6166C178.432 91.6671 178.372 91.7068 178.305 91.7334C178.239 91.76 178.168 91.7729 178.096 91.7713H160.264C159.723 91.7713 159.183 91.7713 159.183 91.2312C158.642 90.6911 158.642 90.6911 158.642 89.6116V57.7596C158.606 57.4664 158.636 57.1689 158.729 56.8887C158.823 56.6085 158.978 56.3527 159.183 56.14H178.096L178.637 56.6801V59.9193L178.096 60.4594H163.506V71.7963H176.475L177.016 72.3364V75.5749L176.475 76.115H164.047V89.0715H178.637L179.178 89.6116V90.1517C178.637 89.0715 178.637 89.6116 178.637 89.6116Z" fill="white"/>
<path d="M210.52 91.2312C210.52 91.7713 210.52 91.7713 209.979 91.7713H206.737C206.665 91.7729 206.594 91.76 206.528 91.7335C206.461 91.7069 206.401 91.6672 206.351 91.6167C206.3 91.5662 206.26 91.506 206.234 91.4398C206.207 91.3735 206.194 91.3026 206.196 91.2312V90.6911L202.954 82.0532C202.413 80.9737 202.413 80.4336 201.873 79.3541C201.332 78.814 200.792 77.7346 200.252 77.1945C199.995 76.8651 199.667 76.5972 199.293 76.4104C198.919 76.2237 198.508 76.1227 198.09 76.115C197.549 75.5749 196.469 75.5749 195.388 75.5749H192.146V91.2312H187.823V57.7596C187.787 57.4665 187.817 57.169 187.91 56.8888C188.004 56.6086 188.159 56.3528 188.364 56.1401C188.904 55.6 188.904 55.6 189.444 55.6H200.792C202.125 55.6314 203.427 56.0031 204.575 56.6794C205.656 57.2195 206.737 57.7589 207.277 58.8391C207.936 59.6624 208.481 60.5702 208.898 61.5382C209.339 62.5581 209.524 63.6698 209.439 64.7773C209.524 65.8848 209.339 66.9965 208.898 68.0164C208.358 69.0959 208.358 69.636 207.277 70.7155C206.737 71.2556 206.197 72.335 205.115 72.8751C204.034 73.4152 203.494 73.9546 202.414 73.9546C202.954 73.9546 203.494 74.4947 204.035 75.0341C204.575 75.5735 205.115 76.1136 205.115 76.6537C205.656 77.1938 205.656 77.7331 206.196 78.8133C206.737 79.3534 206.737 80.4329 207.276 81.5124L210.519 89.6102C210.519 90.1503 211.059 90.6897 211.059 91.2298C210.519 90.6897 210.519 90.6897 210.519 91.2298L210.52 91.2312ZM203.495 65.8575C203.463 64.5262 203.091 63.2252 202.414 62.0783C201.873 60.9988 200.792 60.4587 199.171 59.9186C198.878 59.9548 198.58 59.9251 198.3 59.8317C198.019 59.7383 197.763 59.5834 197.55 59.3785H191.606V71.2563H196.47C197.578 71.3416 198.691 71.1563 199.712 70.7162C200.792 70.1761 201.333 70.1761 201.874 69.6367C202.203 69.3799 202.472 69.0527 202.659 68.679C202.845 68.3054 202.947 67.8947 202.954 67.4771C203.33 67.0233 203.523 66.4458 203.495 65.8575Z" fill="white"/>
<path d="M239.162 66.3976C239.061 68.0641 238.696 69.7041 238.081 71.2563C237.501 72.7164 236.573 74.0135 235.379 75.0356C234.299 76.115 232.678 76.6551 231.596 77.1952C229.697 77.9134 227.683 78.2792 225.652 78.2747H221.328V91.7713H217.005V58.2998C216.963 58.0064 216.99 57.7073 217.084 57.4261C217.178 57.1449 217.336 56.8894 217.545 56.6798C217.755 56.4703 218.011 56.3124 218.292 56.2187C218.574 56.125 218.873 56.0981 219.167 56.1401H228.894C229.825 56.1037 230.751 56.2888 231.596 56.6802C232.598 56.7005 233.558 57.0841 234.297 57.7597C235.323 58.308 236.239 59.0401 236.999 59.9193C237.54 60.9988 238.08 61.5389 238.62 62.6184C239.063 63.8264 239.248 65.1139 239.161 66.3976H239.162ZM234.298 66.9377C234.267 65.6065 233.895 64.3055 233.218 63.1585C232.793 62.1939 232.021 61.4234 231.056 60.9988C230.515 60.4587 229.435 60.4587 228.354 59.9193H221.328V74.4955H225.651C227.272 74.4955 228.353 74.4955 229.434 73.9554C230.247 73.5515 230.98 73.0026 231.596 72.3358C232.136 71.7957 232.676 70.7162 233.217 70.1761C233.627 69.7508 233.937 69.2394 234.124 68.6791C234.311 68.1188 234.371 67.5239 234.298 66.9377Z" fill="white"/>
<path d="M276.448 73.4152C276.393 75.9686 276.03 78.5061 275.368 80.973C274.836 83.2058 273.717 85.256 272.126 86.9112C270.64 88.3359 269.01 89.6025 267.262 90.6904C265.1 91.7699 262.939 91.7699 260.237 91.7699C257.858 91.7165 255.496 91.3536 253.211 90.6904C251.05 90.1503 249.428 88.5307 248.348 87.4513C247.027 85.6909 246.105 83.6647 245.645 81.5131C244.983 79.0462 244.621 76.5087 244.565 73.9553C244.621 71.4019 244.983 68.8645 245.645 66.3976C246.177 64.1648 247.296 62.1146 248.888 60.4594C250.373 59.0346 252.003 57.768 253.751 56.6802C255.913 55.6 258.075 55.6 260.777 55.6C263.155 55.6533 265.517 56.0162 267.802 56.6794C269.964 57.2195 271.585 58.8391 272.665 59.9186C273.883 61.5415 274.798 63.3703 275.367 65.3174C275.992 67.9748 276.354 70.6871 276.448 73.4152H276.448ZM271.585 73.9553C271.585 71.7957 271.585 70.1761 271.044 68.5565C270.594 67.0849 270.052 65.6426 269.423 64.2379L266.181 60.9988C264.456 60.3292 262.627 59.9639 260.777 59.9193C258.926 59.9639 257.098 60.3292 255.372 60.9988C254.607 61.2314 253.912 61.6486 253.346 62.2135C252.781 62.7784 252.363 63.4736 252.13 64.2379C251.048 65.4117 250.466 66.9611 250.509 68.5565C250.062 70.3195 249.88 72.1389 249.968 73.9553C249.88 75.95 250.062 77.9475 250.509 79.8935C250.959 81.3652 251.501 82.8075 252.13 84.2121L255.372 87.4513C257.098 88.1209 258.926 88.4861 260.777 88.5307C262.627 88.4861 264.456 88.1209 266.181 87.4513C266.946 87.2186 267.642 86.8015 268.207 86.2366C268.773 85.6717 269.19 84.9764 269.423 84.2121C270.506 83.0383 271.087 81.489 271.044 79.8935C271.044 77.7346 271.585 75.5749 271.585 73.9553Z" fill="white"/>
<path d="M307.792 91.2312C307.792 91.7713 307.792 91.7713 307.252 91.7713H304.009C303.938 91.7729 303.867 91.76 303.8 91.7335C303.734 91.7069 303.674 91.6672 303.623 91.6167C303.573 91.5662 303.533 91.506 303.506 91.4398C303.48 91.3735 303.467 91.3026 303.469 91.2312V90.6911L300.226 82.0532C299.686 80.9737 299.686 80.4336 299.146 79.3541C298.605 78.814 298.065 77.7346 297.525 77.1945C297.267 76.8651 296.94 76.5972 296.566 76.4104C296.192 76.2237 295.781 76.1227 295.363 76.115C294.822 75.5749 293.742 75.5749 292.661 75.5749H289.419V91.2312H285.095V57.7596C285.059 57.4665 285.089 57.169 285.182 56.8888C285.276 56.6086 285.431 56.3528 285.636 56.1401C286.176 55.6 286.176 55.6 286.716 55.6H298.064C299.397 55.6314 300.699 56.0031 301.847 56.6794C302.928 57.2195 304.009 57.7589 304.549 58.8391C305.208 59.6624 305.753 60.5702 306.17 61.5382C306.611 62.5581 306.796 63.6698 306.711 64.7773C306.796 65.8848 306.611 66.9965 306.17 68.0164C305.63 69.0959 305.63 69.636 304.549 70.7155C304.008 71.2556 303.469 72.335 302.387 72.8751C301.306 73.4152 300.766 73.9546 299.686 73.9546C300.226 73.9546 300.766 74.4947 301.307 75.0341C301.847 75.5735 302.387 76.1136 302.387 76.6537C302.928 77.1938 302.928 77.7331 303.468 78.8133C304.008 79.3534 304.008 80.4329 304.548 81.5124L307.791 89.6102C307.791 90.1503 308.331 90.6897 308.331 91.2298C307.791 90.6897 307.791 90.6897 307.791 91.2298L307.792 91.2312ZM300.767 65.8575C300.735 64.5262 300.363 63.2252 299.686 62.0783C299.145 60.9988 298.064 60.4587 296.443 59.9186C296.15 59.9548 295.852 59.9251 295.572 59.8317C295.291 59.7383 295.035 59.5834 294.822 59.3785H288.878V71.2563H293.742C294.85 71.3417 295.963 71.1563 296.984 70.7162C298.064 70.1761 298.605 70.1761 299.146 69.6367C299.475 69.3799 299.744 69.0527 299.931 68.679C300.117 68.3054 300.218 67.8947 300.226 67.4771C300.602 67.0233 300.795 66.4458 300.767 65.8575Z" fill="white"/>
<path d="M336.433 58.2997V59.9193C336.435 59.9906 336.422 60.0616 336.395 60.1278C336.369 60.1941 336.329 60.2542 336.278 60.3047C336.228 60.3552 336.168 60.3949 336.101 60.4215C336.035 60.4481 335.964 60.461 335.893 60.4594H325.085V91.7713H320.761V60.4586H309.954L309.413 59.9185V56.6794C309.412 56.6081 309.425 56.5372 309.451 56.4711C309.478 56.4049 309.518 56.3448 309.568 56.2944C309.619 56.244 309.679 56.2044 309.745 56.1778C309.812 56.1513 309.882 56.1384 309.954 56.14H335.893L336.433 56.6801V58.2997Z" fill="white"/>
<path d="M91.7867 114.281C91.2251 115.084 90.4395 115.687 89.4301 116.089C88.4283 116.483 87.2594 116.68 85.9236 116.68C84.5727 116.68 83.3735 116.366 82.3261 115.736C81.2787 115.099 80.4666 114.197 79.8898 113.03C79.3206 111.862 79.0284 110.508 79.0132 108.969V107.525C79.0132 105.03 79.5938 103.097 80.755 101.724C81.9239 100.352 83.5632 99.6658 85.6732 99.6658C87.4036 99.6658 88.7964 100.109 89.8513 100.996C90.9063 101.876 91.5514 103.127 91.7867 104.75H89.6009C89.191 102.558 87.8856 101.463 85.6846 101.463C84.2197 101.463 83.1079 101.978 82.3489 103.01C81.5975 104.033 81.218 105.519 81.2104 107.468V108.821C81.2104 110.679 81.6354 112.158 82.4855 113.257C83.3355 114.349 84.4854 114.895 85.935 114.895C86.7547 114.895 87.472 114.804 88.0867 114.622C88.7015 114.44 89.21 114.133 89.6123 113.701V109.981H85.7756V108.207H91.7867V114.281Z" fill="white"/>
<path d="M101.521 109.754H97.627V116.453H95.4298V99.8932H100.917C102.784 99.8932 104.219 100.318 105.221 101.167C106.23 102.016 106.735 103.252 106.735 104.875C106.735 105.906 106.454 106.804 105.892 107.57C105.338 108.336 104.564 108.909 103.57 109.288L107.463 116.316V116.453H105.118L101.521 109.754ZM97.627 107.968H100.985C102.071 107.968 102.932 107.688 103.57 107.127C104.215 106.566 104.537 105.815 104.537 104.875C104.537 103.851 104.23 103.066 103.615 102.52C103.008 101.975 102.128 101.698 100.974 101.69H97.627V107.968Z" fill="white"/>
<path d="M122.559 108.708C122.559 110.33 122.286 111.748 121.74 112.961C121.193 114.167 120.419 115.088 119.417 115.725C118.415 116.362 117.247 116.68 115.911 116.68C114.605 116.68 113.448 116.362 112.438 115.725C111.429 115.081 110.643 114.167 110.082 112.984C109.528 111.794 109.243 110.417 109.228 108.855V107.661C109.228 106.069 109.505 104.662 110.059 103.442C110.613 102.221 111.395 101.288 112.404 100.644C113.421 99.9918 114.583 99.6658 115.888 99.6658C117.216 99.6658 118.385 99.988 119.394 100.633C120.411 101.269 121.193 102.198 121.74 103.419C122.286 104.632 122.559 106.046 122.559 107.661V108.708ZM120.385 107.639C120.385 105.675 119.99 104.17 119.201 103.123C118.412 102.069 117.307 101.542 115.888 101.542C114.507 101.542 113.417 102.069 112.621 103.123C111.831 104.17 111.425 105.625 111.402 107.491V108.708C111.402 110.611 111.801 112.108 112.598 113.2C113.402 114.284 114.507 114.826 115.911 114.826C117.322 114.826 118.415 114.315 119.189 113.291C119.964 112.26 120.362 110.785 120.385 108.867V107.639Z" fill="white"/>
<path d="M137.507 99.8932V111.153C137.5 112.715 137.006 113.992 136.027 114.986C135.056 115.979 133.735 116.536 132.066 116.658L131.485 116.68C129.671 116.68 128.225 116.191 127.147 115.213C126.07 114.235 125.523 112.889 125.508 111.176V99.8932H127.671V111.107C127.671 112.305 128.001 113.238 128.661 113.905C129.322 114.565 130.263 114.895 131.485 114.895C132.722 114.895 133.667 114.565 134.32 113.905C134.98 113.246 135.31 112.317 135.31 111.119V99.8932H137.507Z" fill="white"/>
<path d="M143.143 109.97V116.453H140.957V99.8932H147.07C148.884 99.8932 150.304 100.356 151.328 101.281C152.36 102.206 152.877 103.43 152.877 104.954C152.877 106.562 152.372 107.802 151.362 108.673C150.361 109.538 148.922 109.97 147.048 109.97H143.143ZM143.143 108.184H147.07C148.239 108.184 149.135 107.911 149.757 107.366C150.38 106.812 150.691 106.016 150.691 104.977C150.691 103.991 150.38 103.203 149.757 102.611C149.135 102.02 148.281 101.713 147.196 101.69H143.143V108.184Z" fill="white"/>
</g>
<defs>
<clipPath id="clip0">
<rect width="336" height="139" fill="white"/>
</clipPath>
</defs>
</svg>
