<svg width="141" height="58" viewBox="0 0 141 58" fill="none" xmlns="http://www.w3.org/2000/svg">
<g clip-path="url(#clip0_1:1241)">
<path d="M12.11 15.3739L0 14.7057L12.11 13.77V15.3739Z" fill="#224497"/>
<path d="M12.3789 13.2353L8.61133 8.55713L13.4552 12.2996L12.3789 13.2353Z" fill="#224497"/>
<path d="M14.1284 12.0324L14.6667 0.00292969L15.6086 12.0324H14.1284Z" fill="#224497"/>
<path d="M16.0122 12.2998L20.9907 8.29004L17.0886 13.2355L16.0122 12.2998Z" fill="#224497"/>
<path d="M17.2231 13.9038L29.1985 14.4385L17.2231 15.374V13.9038Z" fill="#224497"/>
<path d="M14.6662 16.7105C15.7809 16.7105 16.6845 15.8128 16.6845 14.7056C16.6845 13.5983 15.7809 12.7007 14.6662 12.7007C13.5516 12.7007 12.6479 13.5983 12.6479 14.7056C12.6479 15.8128 13.5516 16.7105 14.6662 16.7105Z" fill="#ED1C24"/>
<path d="M8.34229 17.5127H13.8591L12.7825 22.5919H10.6298L8.34229 20.0523V17.5127Z" fill="#224497"/>
<path d="M20.9909 17.5127H15.4741L16.5505 22.5919H18.7034L20.9909 20.0523V17.5127Z" fill="#224497"/>
<path d="M10.3607 23.2598H12.6483V51.4622C12.0513 51.5052 11.4847 51.7397 11.0336 52.1305C10.2263 52.7987 9.41898 53.1997 9.5536 51.8632C9.82264 50.5266 9.82264 50.1256 9.41898 49.8583C9.01532 49.7246 8.47705 50.6603 8.47705 50.6603L10.3607 23.2598Z" fill="#ED1C24"/>
<path d="M16.6846 52.3977V23.2598H19.1065L21.394 52.9324C20.8131 52.3961 20.1256 51.9863 19.3758 51.7295C18.1646 51.3285 17.4919 51.8632 16.6846 52.3977Z" fill="#ED1C24"/>
<path d="M12.1101 54.6701C11.8411 54.9374 10.0918 55.4721 9.41894 56.0068C8.61162 56.5415 7.53526 56.9424 6.72776 56.9424C6.05505 56.9424 5.51678 56.4077 6.18949 55.2048C6.86219 54.0019 6.9968 52.9327 7.93874 51.8633C8.88067 50.7939 9.28433 50.5266 9.41876 51.0613C9.55337 51.7296 9.28415 51.997 9.28415 52.6652C9.28415 53.3335 9.41876 53.4672 10.3605 53.0662C11.3023 52.6652 11.4369 52.2642 11.9751 52.2642C12.5134 52.2642 12.3788 52.1305 12.9171 51.997C13.5898 51.7297 13.7244 52.2642 14.1281 52.7989C14.6663 53.3336 14.9354 53.7346 15.339 53.7346C15.7427 53.7346 16.0117 53.0664 17.2227 52.6654C18.4337 52.1307 19.241 52.3981 20.5866 53.3336C21.5434 53.969 22.4437 54.6845 23.2778 55.4722C23.8161 56.1405 23.1432 56.4079 22.7395 56.2742C22.3359 56.1405 21.9322 55.8732 21.5285 54.9375C21.1249 54.0019 20.8558 53.8683 20.0485 53.7346C19.2412 53.6009 18.5685 53.7346 18.2993 54.1356C18.03 54.5366 17.6266 54.8038 17.2229 55.2048C16.685 55.6056 16.1469 55.6056 15.8777 56.274C15.474 56.9423 15.3394 56.9423 14.3976 56.9423C13.4557 56.8085 13.0521 56.675 13.1867 56.0066C13.3213 55.3382 13.4557 55.2046 13.0521 54.9374C12.6484 54.5364 12.5138 54.4027 12.1101 54.6701Z" fill="#224497"/>
<path d="M35.7315 38.0669C35.7322 38.0967 35.7268 38.1263 35.7156 38.1539C35.7045 38.1816 35.6878 38.2067 35.6666 38.2277C35.6454 38.2488 35.6201 38.2654 35.5923 38.2765C35.5645 38.2875 35.5346 38.2929 35.5047 38.2923H33.9175V23.6499H35.7315V38.0669Z" fill="#224497"/>
<path d="M51.1523 37.3911V37.8415L50.9255 38.0669L50.6986 38.2923H49.338C49.1111 38.2923 49.1111 38.0669 48.8845 38.0669C48.658 38.0669 48.6577 37.8415 48.4311 37.6165C48.2045 37.3914 48.2042 37.1657 47.9777 36.9407L43.2155 28.3804L42.5352 27.0289L41.8548 25.6773V38.5176L41.628 38.743H40.2673C40.2374 38.7436 40.2076 38.7383 40.1797 38.7272C40.1519 38.7161 40.1266 38.6995 40.1054 38.6785C40.0842 38.6574 40.0675 38.6323 40.0564 38.6046C40.0452 38.577 40.0398 38.5474 40.0405 38.5176V24.5511C40.0253 24.4287 40.0377 24.3046 40.077 24.1877C40.1162 24.0708 40.1813 23.964 40.2673 23.8753C40.385 23.7468 40.5467 23.6664 40.7208 23.6499H42.0814C42.3083 23.6499 42.3083 23.6499 42.5349 23.8753C42.7617 23.8753 42.7617 24.1006 42.9883 24.3257C42.9883 24.5511 43.2152 24.7761 43.4417 25.0015L47.0705 31.5343C47.2973 31.9848 47.5239 32.2101 47.7508 32.6606C47.9777 33.111 48.2042 33.3363 48.4311 33.7868C48.658 34.2372 48.8845 34.4626 49.1114 34.913C49.3383 35.3634 49.5648 35.5888 49.5648 36.0392V24.1003L49.7917 23.875H51.1523C51.1823 23.8743 51.2121 23.8797 51.2399 23.8908C51.2678 23.9019 51.2931 23.9184 51.3143 23.9395C51.3355 23.9606 51.3521 23.9857 51.3633 24.0133C51.3745 24.0409 51.3799 24.0706 51.3792 24.1003V37.3911H51.1523Z" fill="#224497"/>
<path d="M64.5322 24.3265V25.0023C64.5328 25.0321 64.5274 25.0617 64.5162 25.0893C64.5051 25.117 64.4884 25.1421 64.4672 25.1631C64.446 25.1842 64.4207 25.2008 64.3929 25.2119C64.3651 25.2229 64.3353 25.2283 64.3053 25.2277H59.77V38.2931H57.9556V25.2274H53.4203L53.1934 25.002V23.6504C53.1928 23.6207 53.1982 23.5911 53.2094 23.5635C53.2206 23.5359 53.2373 23.5108 53.2585 23.4898C53.2797 23.4687 53.3049 23.4522 53.3327 23.4411C53.3606 23.4301 53.3903 23.4247 53.4203 23.4253H64.3053L64.5322 23.6507V24.3265Z" fill="#224497"/>
<path d="M74.9638 37.3919V38.0676C74.9645 38.0974 74.9591 38.127 74.9479 38.1547C74.9367 38.1823 74.92 38.2074 74.8988 38.2285C74.8776 38.2495 74.8524 38.2661 74.8245 38.2772C74.7967 38.2883 74.7669 38.2937 74.7369 38.293H67.2535C67.0266 38.293 66.8001 38.293 66.8001 38.0676C66.5732 37.8423 66.5732 37.8423 66.5732 37.3919V24.1011C66.558 23.9788 66.5704 23.8546 66.6097 23.7377C66.6489 23.6208 66.714 23.514 66.8001 23.4253H74.7369L74.9638 23.6507V25.0022L74.7369 25.2276H68.6141V29.9581H74.0566L74.2835 30.1835V31.5348L74.0566 31.7602H68.841V37.1665H74.9638L75.1907 37.3919V37.6172C74.9638 37.1665 74.9638 37.3919 74.9638 37.3919Z" fill="#224497"/>
<path d="M88.3432 38.0674C88.3432 38.2928 88.3432 38.2928 88.1163 38.2928H86.7557C86.7257 38.2935 86.6959 38.2881 86.6681 38.277C86.6402 38.2659 86.615 38.2493 86.5938 38.2283C86.5726 38.2072 86.5559 38.1821 86.5447 38.1544C86.5335 38.1268 86.5281 38.0972 86.5288 38.0674V37.8421L85.1682 34.2377C84.9413 33.7873 84.9413 33.5619 84.7147 33.1115C84.4879 32.8862 84.2613 32.4357 84.0344 32.2104C83.9265 32.0729 83.7891 31.9611 83.6321 31.8832C83.4752 31.8053 83.3027 31.7632 83.1272 31.7599C82.9004 31.5346 82.4469 31.5346 81.9935 31.5346H80.6329V38.0674H78.8188V24.1009C78.8036 23.9785 78.816 23.8544 78.8553 23.7375C78.8945 23.6206 78.9596 23.5138 79.0457 23.4251C79.2725 23.1997 79.2725 23.1997 79.4991 23.1997H84.2613C84.8205 23.2128 85.367 23.3679 85.8488 23.6501C86.3022 23.8755 86.756 24.1006 86.9826 24.5513C87.2589 24.8948 87.4877 25.2736 87.6629 25.6775C87.8477 26.1031 87.9256 26.567 87.8897 27.0291C87.9256 27.4912 87.8477 27.9551 87.6629 28.3807C87.436 28.8311 87.436 29.0565 86.9826 29.5069C86.7557 29.7323 86.5291 30.1827 86.0754 30.408C85.6216 30.6334 85.3951 30.8585 84.9416 30.8585C85.1685 30.8585 85.3951 31.0838 85.6219 31.3089C85.8488 31.534 86.0754 31.7593 86.0754 31.9847C86.3022 32.2101 86.3022 32.4351 86.5288 32.8859C86.7557 33.1112 86.7557 33.5616 86.9822 34.0121L88.3429 37.391C88.3429 37.6164 88.5697 37.8415 88.5697 38.0668C88.3429 37.8415 88.3429 37.8415 88.3429 38.0668L88.3432 38.0674ZM85.3954 27.4798C85.3821 26.9243 85.2259 26.3814 84.9416 25.9029C84.7147 25.4524 84.2613 25.2271 83.581 25.0017C83.4579 25.0168 83.3329 25.0045 83.2152 24.9655C83.0975 24.9265 82.99 24.8619 82.9007 24.7764H80.4063V29.7326H82.4472C82.9125 29.7682 83.3794 29.6908 83.8079 29.5072C84.2613 29.2818 84.4882 29.2818 84.715 29.0568C84.8534 28.9496 84.9659 28.8131 85.0444 28.6571C85.1228 28.5012 85.1652 28.3299 85.1685 28.1556C85.3262 27.9663 85.4071 27.7253 85.3954 27.4798Z" fill="#224497"/>
<path d="M100.363 27.7051C100.32 28.4005 100.167 29.0848 99.9091 29.7325C99.6656 30.3418 99.2765 30.883 98.7753 31.3095C98.3219 31.7599 97.6416 31.9853 97.1878 32.2106C96.3909 32.5103 95.5456 32.6629 94.6935 32.661H92.8788V38.2927H91.0647V24.3262C91.0471 24.2038 91.0584 24.0789 91.0978 23.9616C91.1371 23.8443 91.2034 23.7377 91.2915 23.6502C91.3795 23.5628 91.4868 23.4969 91.6049 23.4578C91.723 23.4187 91.8487 23.4075 91.9719 23.425H96.0538C96.4443 23.4098 96.8329 23.4871 97.1875 23.6504C97.608 23.6588 98.0109 23.8189 98.3213 24.1008C98.7516 24.3296 99.1359 24.6351 99.455 25.002C99.6819 25.4524 99.9085 25.6778 100.135 26.1282C100.321 26.6323 100.399 27.1695 100.362 27.7051H100.363ZM98.3216 27.9305C98.3084 27.375 98.1523 26.8322 97.8682 26.3536C97.6898 25.9511 97.3661 25.6296 96.961 25.4524C96.7341 25.227 96.2807 25.227 95.8272 25.002H92.8788V31.0841H94.6929C95.3732 31.0841 95.8266 31.0841 96.2803 30.8587C96.6216 30.6902 96.9291 30.4612 97.1875 30.1829C97.4144 29.9576 97.641 29.5071 97.8678 29.2818C98.04 29.1043 98.1701 28.8909 98.2486 28.6571C98.3271 28.4233 98.352 28.1751 98.3216 27.9305Z" fill="#224497"/>
<path d="M116.01 30.6334C115.986 31.6989 115.834 32.7577 115.556 33.787C115.333 34.7187 114.863 35.5742 114.195 36.2648C113.572 36.8593 112.888 37.3878 112.155 37.8418C111.247 38.2922 110.34 38.2922 109.206 38.2922C108.208 38.2699 107.217 38.1185 106.258 37.8418C105.351 37.6164 104.671 36.9406 104.217 36.4902C103.663 35.7556 103.276 34.9102 103.083 34.0124C102.805 32.983 102.653 31.9242 102.63 30.8588C102.653 29.7933 102.805 28.7345 103.083 27.7052C103.306 26.7735 103.776 25.918 104.444 25.2274C105.067 24.6329 105.751 24.1044 106.485 23.6504C107.392 23.1997 108.299 23.1997 109.433 23.1997C110.431 23.222 111.422 23.3734 112.381 23.6501C113.288 23.8755 113.969 24.5513 114.422 25.0017C114.933 25.6789 115.317 26.442 115.556 27.2545C115.818 28.3633 115.97 29.4951 116.009 30.6334H116.01ZM113.969 30.8588C113.969 29.9576 113.969 29.2818 113.742 28.606C113.553 27.992 113.326 27.3901 113.061 26.804L111.701 25.4524C110.977 25.173 110.209 25.0206 109.433 25.002C108.657 25.0206 107.889 25.173 107.165 25.4524C106.844 25.5495 106.552 25.7236 106.315 25.9593C106.078 26.195 105.902 26.4851 105.805 26.804C105.35 27.2938 105.106 27.9403 105.124 28.606C104.937 29.3417 104.86 30.1008 104.897 30.8588C104.86 31.6911 104.937 32.5246 105.124 33.3366C105.313 33.9506 105.541 34.5525 105.805 35.1386L107.165 36.4902C107.889 36.7696 108.657 36.922 109.433 36.9406C110.209 36.922 110.977 36.7696 111.701 36.4902C112.022 36.3931 112.314 36.219 112.551 35.9833C112.788 35.7476 112.964 35.4575 113.061 35.1386C113.516 34.6488 113.76 34.0023 113.742 33.3366C113.742 32.4357 113.969 31.5346 113.969 30.8588Z" fill="#224497"/>
<path d="M129.163 38.0674C129.163 38.2928 129.163 38.2928 128.936 38.2928H127.575C127.545 38.2935 127.516 38.2881 127.488 38.277C127.46 38.2659 127.435 38.2493 127.413 38.2283C127.392 38.2072 127.376 38.1821 127.364 38.1544C127.353 38.1268 127.348 38.0972 127.348 38.0674V37.8421L125.988 34.2377C125.761 33.7873 125.761 33.5619 125.534 33.1115C125.308 32.8862 125.081 32.4357 124.854 32.2104C124.746 32.0729 124.609 31.9611 124.452 31.8832C124.295 31.8053 124.122 31.7632 123.947 31.7599C123.72 31.5346 123.267 31.5346 122.813 31.5346H121.453V38.0674H119.638V24.1009C119.623 23.9785 119.635 23.8544 119.675 23.7375C119.714 23.6206 119.779 23.5138 119.865 23.4251C120.092 23.1997 120.092 23.1997 120.318 23.1997H125.081C125.64 23.2128 126.186 23.3679 126.668 23.6501C127.122 23.8755 127.575 24.1006 127.802 24.5513C128.078 24.8948 128.307 25.2736 128.482 25.6775C128.667 26.1031 128.745 26.567 128.709 27.0291C128.745 27.4912 128.667 27.9551 128.482 28.3807C128.255 28.8311 128.255 29.0565 127.802 29.5069C127.575 29.7323 127.348 30.1827 126.895 30.408C126.441 30.6334 126.214 30.8585 125.761 30.8585C125.988 30.8585 126.214 31.0838 126.441 31.3089C126.668 31.534 126.895 31.7593 126.895 31.9847C127.122 32.2101 127.122 32.4351 127.348 32.8859C127.575 33.1112 127.575 33.5616 127.802 34.0121L129.162 37.391C129.162 37.6164 129.389 37.8415 129.389 38.0668C129.162 37.8415 129.162 37.8415 129.162 38.0668L129.163 38.0674ZM126.215 27.4798C126.201 26.9243 126.045 26.3815 125.761 25.9029C125.534 25.4524 125.081 25.2271 124.4 25.0017C124.277 25.0168 124.152 25.0045 124.035 24.9655C123.917 24.9265 123.809 24.8619 123.72 24.7764H121.226V29.7326H123.267C123.732 29.7682 124.199 29.6908 124.627 29.5072C125.081 29.2818 125.308 29.2818 125.534 29.0568C125.673 28.9496 125.785 28.8131 125.864 28.6571C125.942 28.5012 125.985 28.3299 125.988 28.1556C126.146 27.9663 126.226 27.7253 126.215 27.4798Z" fill="#224497"/>
<path d="M141.182 24.3265V25.0023C141.183 25.0321 141.177 25.0617 141.166 25.0893C141.155 25.117 141.138 25.1421 141.117 25.1631C141.096 25.1842 141.071 25.2008 141.043 25.2119C141.015 25.2229 140.985 25.2283 140.955 25.2277H136.42V38.2931H134.606V25.2274H130.07L129.843 25.002V23.6504C129.843 23.6207 129.848 23.5911 129.859 23.5635C129.87 23.5359 129.887 23.5108 129.908 23.4898C129.93 23.4687 129.955 23.4522 129.983 23.4411C130.01 23.4301 130.04 23.4247 130.07 23.4253H140.955L141.182 23.6507V24.3265Z" fill="#224497"/>
<path d="M38.518 47.6852C38.2824 48.0205 37.9527 48.2721 37.5291 48.4397C37.1087 48.6043 36.6182 48.6865 36.0576 48.6865C35.4907 48.6865 34.9875 48.5552 34.548 48.2926C34.1084 48.0269 33.7676 47.6504 33.5256 47.1631C33.2867 46.6759 33.1641 46.1112 33.1577 45.4689V44.8662C33.1577 43.8253 33.4014 43.0185 33.8887 42.4459C34.3792 41.8732 35.0671 41.5869 35.9525 41.5869C36.6787 41.5869 37.2632 41.772 37.7059 42.1422C38.1486 42.5092 38.4193 43.0312 38.518 43.7083H37.6008C37.4288 42.7939 36.881 42.3367 35.9573 42.3367C35.3426 42.3367 34.876 42.5519 34.5575 42.9822C34.2422 43.4093 34.083 44.0294 34.0798 44.8425V45.4072C34.0798 46.1824 34.2581 46.7993 34.6148 47.2581C34.9716 47.7136 35.4541 47.9414 36.0624 47.9414C36.4064 47.9414 36.7074 47.9035 36.9654 47.8275C37.2233 47.7516 37.4367 47.6235 37.6055 47.4431V45.8913H35.9955V45.151H38.518V47.6852Z" fill="#224497"/>
<path d="M42.6028 45.7964H40.9689V48.5916H40.0468V41.6818H42.3496C43.1331 41.6818 43.735 41.859 44.1555 42.2134C44.5791 42.5677 44.7909 43.0834 44.7909 43.7605C44.7909 44.1907 44.673 44.5656 44.4373 44.8852C44.2048 45.2047 43.88 45.4436 43.4627 45.6018L45.0966 48.5347V48.5916H44.1125L42.6028 45.7964ZM40.9689 45.0513H42.3782C42.8337 45.0513 43.1952 44.9342 43.4627 44.7001C43.7334 44.466 43.8688 44.1528 43.8688 43.7605C43.8688 43.3333 43.7398 43.0059 43.4818 42.7781C43.227 42.5503 42.8576 42.4348 42.3735 42.4317H40.9689V45.0513Z" fill="#224497"/>
<path d="M51.4316 45.3598C51.4316 46.0368 51.3169 46.6285 51.0876 47.1347C50.8583 47.6377 50.5334 48.0221 50.113 48.2879C49.6926 48.5536 49.2021 48.6865 48.6415 48.6865C48.0937 48.6865 47.608 48.5536 47.1844 48.2879C46.7608 48.019 46.4311 47.6377 46.1954 47.1442C45.9629 46.6474 45.8435 46.0732 45.8371 45.4215V44.9232C45.8371 44.2588 45.9534 43.6719 46.1859 43.1625C46.4184 42.6531 46.7464 42.264 47.17 41.995C47.5968 41.723 48.0841 41.5869 48.632 41.5869C49.1893 41.5869 49.6798 41.7214 50.1034 41.9903C50.5302 42.2561 50.8583 42.6436 51.0876 43.153C51.3169 43.6592 51.4316 44.2493 51.4316 44.9232V45.3598ZM50.5191 44.9137C50.5191 44.0942 50.3534 43.4662 50.0222 43.0296C49.691 42.5898 49.2275 42.37 48.632 42.37C48.0523 42.37 47.5952 42.5898 47.2608 43.0296C46.9296 43.4662 46.7592 44.0737 46.7496 44.852V45.3598C46.7496 46.1539 46.9168 46.7787 47.2513 47.2343C47.5889 47.6868 48.0523 47.913 48.6415 47.913C49.2339 47.913 49.6926 47.6994 50.0174 47.2723C50.3423 46.842 50.5095 46.2267 50.5191 45.4262V44.9137Z" fill="#224497"/>
<path d="M57.7044 41.6818V46.3801C57.7012 47.0318 57.4942 47.5649 57.0833 47.9794C56.6756 48.3939 56.1214 48.6264 55.4207 48.677L55.1771 48.6865C54.4159 48.6865 53.8091 48.4825 53.3569 48.0743C52.9046 47.6662 52.6753 47.1046 52.6689 46.3896V41.6818H53.5766V46.3611C53.5766 46.861 53.7152 47.2501 53.9923 47.5286C54.2694 47.8038 54.6643 47.9414 55.1771 47.9414C55.6962 47.9414 56.0928 47.8038 56.3667 47.5286C56.6438 47.2533 56.7823 46.8657 56.7823 46.3659V41.6818H57.7044Z" fill="#224497"/>
<path d="M60.0692 45.8865V48.5916H59.1519V41.6818H61.7175C62.4787 41.6818 63.0743 41.8748 63.5042 42.2608C63.9374 42.6468 64.154 43.1578 64.154 43.7937C64.154 44.4644 63.9422 44.9817 63.5186 45.3455C63.0981 45.7062 62.4946 45.8865 61.7079 45.8865H60.0692ZM60.0692 45.1415H61.7175C62.2079 45.1415 62.5838 45.0276 62.8449 44.7998C63.1061 44.5688 63.2367 44.2366 63.2367 43.8032C63.2367 43.3919 63.1061 43.0628 62.8449 42.8161C62.5838 42.5693 62.2255 42.4411 61.77 42.4317H60.0692V45.1415Z" fill="#224497"/>
</g>
<defs>
<clipPath id="clip0_1:1241">
<rect width="141" height="58" fill="white"/>
</clipPath>
</defs>
</svg>
