<svg width="124" height="51" viewBox="0 0 124 51" fill="none" xmlns="http://www.w3.org/2000/svg">
<g clip-path="url(#clip0_14:2521)">
<path d="M10.6499 13.5186L0 12.931L10.6499 12.1083V13.5186Z" fill="#224497"/>
<path d="M10.8865 11.6381L7.57318 7.52454L11.8331 10.8154L10.8865 11.6381Z" fill="#224497"/>
<path d="M12.4249 10.5803L12.8982 0.00268555L13.7266 10.5803H12.4249Z" fill="#224497"/>
<path d="M14.0816 10.8153L18.4599 7.28949L15.0282 11.6381L14.0816 10.8153Z" fill="#224497"/>
<path d="M15.1465 12.2257L25.6781 12.6959L15.1465 13.5185V12.2257Z" fill="#224497"/>
<path d="M12.8982 14.6937C13.8785 14.6937 14.6732 13.9045 14.6732 12.9308C14.6732 11.9572 13.8785 11.1679 12.8982 11.1679C11.918 11.1679 11.1233 11.9572 11.1233 12.9308C11.1233 13.9045 11.918 14.6937 12.8982 14.6937Z" fill="#ED1C24"/>
<path d="M7.33661 15.3991H12.1883L11.2415 19.8653H9.34833L7.33661 17.6322V15.3991Z" fill="#224497"/>
<path d="M18.4599 15.3991H13.6082L14.5548 19.8653H16.4481L18.4599 17.6322V15.3991Z" fill="#224497"/>
<path d="M9.11153 20.4528H11.1233V45.2515C10.5983 45.2893 10.0999 45.4955 9.70329 45.8391C8.99331 46.4267 8.28332 46.7793 8.40171 45.6041C8.63831 44.4288 8.63831 44.0762 8.28332 43.8412C7.92833 43.7236 7.45496 44.5464 7.45496 44.5464L9.11153 20.4528Z" fill="#ED1C24"/>
<path d="M14.6732 46.0741V20.4528H16.8032L18.8149 46.5443C18.3039 46.0727 17.6994 45.7124 17.0399 45.4866C15.9748 45.134 15.3832 45.6041 14.6732 46.0741Z" fill="#ED1C24"/>
<path d="M10.6499 48.0722C10.4133 48.3072 8.87496 48.7774 8.2832 49.2476C7.57322 49.7177 6.62663 50.0703 5.91649 50.0703C5.32489 50.0703 4.85151 49.6001 5.44311 48.5424C6.03471 47.4846 6.15309 46.5445 6.98146 45.6041C7.80982 44.6638 8.16482 44.4288 8.28304 44.899C8.40142 45.4866 8.16466 45.7217 8.16466 46.3093C8.16466 46.8969 8.28304 47.0145 9.11125 46.6619C9.93945 46.3093 10.0578 45.9567 10.5312 45.9567C11.0046 45.9567 10.8862 45.8392 11.3596 45.7217C11.9512 45.4867 12.0696 45.9567 12.4246 46.4269C12.8979 46.8971 13.1345 47.2496 13.4895 47.2496C13.8445 47.2496 14.0811 46.6621 15.1461 46.3095C16.2111 45.8393 16.9211 46.0745 18.1044 46.8971C18.9458 47.4558 19.7376 48.0849 20.4711 48.7776C20.9445 49.3651 20.3527 49.6003 19.9978 49.4827C19.6428 49.3651 19.2878 49.1301 18.9328 48.3074C18.5778 47.4846 18.3412 47.3672 17.6312 47.2496C16.9212 47.1321 16.3296 47.2496 16.0928 47.6022C15.8561 47.9548 15.5012 48.1898 15.1463 48.5424C14.6732 48.8948 14.2 48.8948 13.9632 49.4826C13.6082 50.0702 13.4898 50.0702 12.6616 50.0702C11.8333 49.9526 11.4783 49.8352 11.5967 49.2474C11.715 48.6597 11.8333 48.5422 11.4783 48.3072C11.1233 47.9547 11.0049 47.8371 10.6499 48.0722Z" fill="#224497"/>
<path d="M31.4236 33.4731C31.4242 33.4993 31.4194 33.5253 31.4096 33.5496C31.3998 33.5739 31.3851 33.596 31.3665 33.6145C31.3478 33.633 31.3256 33.6476 31.3011 33.6574C31.2766 33.6671 31.2504 33.6718 31.2241 33.6712H29.8282V20.7961H31.4236V33.4731Z" fill="#224497"/>
<path d="M44.985 32.8789V33.2749L44.7855 33.4731L44.586 33.6712H43.3894C43.1899 33.6712 43.1899 33.4731 42.9906 33.4731C42.7914 33.4731 42.7911 33.2749 42.5919 33.077C42.3926 32.8791 42.3923 32.6807 42.1931 32.4828L38.0051 24.9557L37.4068 23.7672L36.8085 22.5788V33.8694L36.609 34.0676H35.4124C35.386 34.0682 35.3598 34.0634 35.3354 34.0537C35.3109 34.0439 35.2886 34.0294 35.27 34.0108C35.2514 33.9923 35.2367 33.9702 35.2269 33.9459C35.217 33.9216 35.2123 33.8956 35.2129 33.8694V21.5885C35.1995 21.4809 35.2105 21.3718 35.245 21.269C35.2795 21.1661 35.3367 21.0723 35.4124 20.9942C35.5159 20.8812 35.6581 20.8106 35.8112 20.7961H37.0077C37.2073 20.7961 37.2073 20.7961 37.4065 20.9942C37.606 20.9942 37.606 21.1924 37.8053 21.3903C37.8053 21.5885 38.0048 21.7864 38.204 21.9845L41.3953 27.7289C41.5948 28.125 41.7941 28.3232 41.9936 28.7192C42.1931 29.1153 42.3923 29.3135 42.5919 29.7095C42.7914 30.1056 42.9906 30.3038 43.1901 30.6998C43.3897 31.0959 43.5889 31.2941 43.5889 31.6901V21.1921L43.7884 20.994H44.985C45.0114 20.9934 45.0376 20.9981 45.0621 21.0079C45.0865 21.0176 45.1088 21.0322 45.1274 21.0507C45.146 21.0692 45.1607 21.0913 45.1705 21.1156C45.1804 21.1399 45.1851 21.166 45.1845 21.1921V32.8789H44.985Z" fill="#224497"/>
<path d="M56.7518 21.3906V21.9848C56.7524 22.011 56.7476 22.037 56.7378 22.0613C56.728 22.0856 56.7133 22.1077 56.6947 22.1262C56.676 22.1448 56.6538 22.1593 56.6293 22.1691C56.6048 22.1788 56.5786 22.1836 56.5523 22.183H52.5638V33.6715H50.9682V22.1827H46.9797L46.7801 21.9846V20.7961C46.7796 20.7699 46.7844 20.7439 46.7942 20.7197C46.804 20.6954 46.8187 20.6733 46.8374 20.6548C46.856 20.6364 46.8782 20.6218 46.9027 20.6121C46.9271 20.6023 46.9533 20.5976 46.9797 20.5982H56.5523L56.7518 20.7964V21.3906Z" fill="#224497"/>
<path d="M65.9257 32.8791V33.4734C65.9262 33.4996 65.9215 33.5256 65.9117 33.5499C65.9019 33.5742 65.8872 33.5963 65.8685 33.6148C65.8499 33.6333 65.8277 33.6479 65.8032 33.6576C65.7787 33.6674 65.7525 33.6721 65.7261 33.6715H59.145C58.9454 33.6715 58.7462 33.6715 58.7462 33.4734C58.5467 33.2752 58.5467 33.2752 58.5467 32.8791V21.1924C58.5333 21.0849 58.5443 20.9757 58.5788 20.8729C58.6133 20.7701 58.6705 20.6763 58.7462 20.5982H65.7261L65.9257 20.7964V21.9848L65.7261 22.183H60.3415V26.3426H65.1279L65.3274 26.5408V27.729L65.1279 27.9271H60.5411V32.681H65.9257L66.1252 32.8791V33.0773C65.9257 32.681 65.9257 32.8791 65.9257 32.8791Z" fill="#224497"/>
<path d="M77.6919 33.4734C77.6919 33.6715 77.6919 33.6715 77.4924 33.6715H76.2958C76.2694 33.6721 76.2432 33.6674 76.2188 33.6576C76.1943 33.6479 76.172 33.6333 76.1534 33.6148C76.1348 33.5963 76.1201 33.5742 76.1103 33.5499C76.1004 33.5256 76.0957 33.4995 76.0963 33.4734V33.2752L74.8997 30.1059C74.7002 29.7098 74.7002 29.5117 74.5009 29.1156C74.3014 28.9174 74.1022 28.5214 73.9026 28.3232C73.8077 28.2023 73.6869 28.104 73.5488 28.0355C73.4108 27.967 73.2591 27.93 73.1048 27.9271C72.9053 27.729 72.5065 27.729 72.1078 27.729H70.9112V33.4734H69.3158V21.1924C69.3025 21.0849 69.3134 20.9757 69.3479 20.8729C69.3825 20.7701 69.4397 20.6762 69.5154 20.5982C69.7149 20.4 69.7149 20.4 69.9141 20.4H74.1022C74.5939 20.4116 75.0745 20.5479 75.4983 20.7961C75.897 20.9943 76.2961 21.1922 76.4953 21.5885C76.7384 21.8906 76.9396 22.2236 77.0936 22.5788C77.2562 22.953 77.3247 23.3609 77.2931 23.7672C77.3247 24.1736 77.2562 24.5815 77.0936 24.9557C76.8941 25.3518 76.8941 25.5499 76.4953 25.946C76.2958 26.1442 76.0965 26.5402 75.6975 26.7384C75.2985 26.9366 75.0992 27.1345 74.7004 27.1345C74.9 27.1345 75.0992 27.3326 75.2987 27.5305C75.4983 27.7284 75.6975 27.9266 75.6975 28.1248C75.897 28.3229 75.897 28.5208 76.0963 28.9172C76.2958 29.1153 76.2958 29.5114 76.495 29.9074L77.6916 32.8786C77.6916 33.0768 77.8911 33.2747 77.8911 33.4728C77.6916 33.2747 77.6916 33.2747 77.6916 33.4728L77.6919 33.4734ZM75.0995 24.1636C75.0878 23.6751 74.9504 23.1978 74.7004 22.7769C74.5009 22.3809 74.1022 22.1827 73.5039 21.9846C73.3956 21.9978 73.2857 21.987 73.1822 21.9527C73.0786 21.9184 72.9842 21.8616 72.9056 21.7864H70.7119V26.1444H72.5068C72.9159 26.1757 73.3266 26.1077 73.7034 25.9463C74.1022 25.7481 74.3017 25.7481 74.5012 25.5502C74.6229 25.456 74.7218 25.3359 74.7908 25.1988C74.8598 25.0617 74.8971 24.911 74.9 24.7578C75.0386 24.5913 75.1098 24.3794 75.0995 24.1636Z" fill="#224497"/>
<path d="M88.2622 24.3617C88.2251 24.9732 88.0905 25.5749 87.8634 26.1444C87.6492 26.6801 87.307 27.156 86.8663 27.5311C86.4676 27.9271 85.8693 28.1253 85.4702 28.3235C84.7694 28.587 84.026 28.7212 83.2766 28.7195H81.6807V33.6715H80.0854V21.3906C80.0698 21.2829 80.0798 21.1732 80.1144 21.07C80.149 20.9669 80.2073 20.8731 80.2847 20.7962C80.3622 20.7193 80.4565 20.6614 80.5604 20.627C80.6643 20.5927 80.7748 20.5828 80.8832 20.5982H84.4729C84.8164 20.5848 85.1581 20.6527 85.47 20.7964C85.8397 20.8038 86.1941 20.9446 86.467 21.1924C86.8455 21.3936 87.1834 21.6622 87.4641 21.9848C87.6636 22.3809 87.8628 22.579 88.0624 22.9751C88.2259 23.4183 88.2939 23.8908 88.2619 24.3617H88.2622ZM86.4673 24.5599C86.4557 24.0715 86.3184 23.5941 86.0685 23.1733C85.9117 22.8194 85.627 22.5367 85.2707 22.3809C85.0712 22.1827 84.6724 22.1827 84.2736 21.9848H81.6807V27.3329H83.2761C83.8743 27.3329 84.2731 27.3329 84.6721 27.1347C84.9723 26.9865 85.2427 26.7852 85.47 26.5405C85.6695 26.3423 85.8687 25.9463 86.0682 25.7481C86.2196 25.592 86.334 25.4044 86.4031 25.1988C86.4721 24.9933 86.494 24.775 86.4673 24.5599Z" fill="#224497"/>
<path d="M102.023 26.9366C102.002 27.8734 101.868 28.8044 101.624 29.7095C101.428 30.5288 101.015 31.281 100.427 31.8883C99.8791 32.4111 99.2776 32.8758 98.6325 33.2749C97.8347 33.671 97.0372 33.671 96.0399 33.671C95.162 33.6514 94.2904 33.5183 93.4472 33.2749C92.6494 33.0768 92.0511 32.4825 91.6523 32.0865C91.1648 31.4406 90.8245 30.6972 90.655 29.9077C90.4107 29.0026 90.2768 28.0716 90.2562 27.1347C90.2768 26.1979 90.4107 25.2669 90.655 24.3617C90.8511 23.5425 91.2642 22.7903 91.8516 22.183C92.3998 21.6602 93.0014 21.1955 93.6464 20.7964C94.4442 20.4 95.2421 20.4 96.2391 20.4C97.117 20.4196 97.9886 20.5527 98.8318 20.7961C99.6296 20.9943 100.228 21.5885 100.627 21.9846C101.076 22.58 101.414 23.251 101.624 23.9654C101.854 24.9404 101.988 25.9356 102.022 26.9366H102.023ZM100.228 27.1347C100.228 26.3423 100.228 25.7481 100.028 25.1539C99.8621 24.6139 99.6623 24.0847 99.4301 23.5693L98.2335 22.3809C97.5968 22.1352 96.922 22.0012 96.2391 21.9848C95.5562 22.0012 94.8814 22.1352 94.2447 22.3809C93.9624 22.4662 93.7056 22.6193 93.4969 22.8266C93.2882 23.0338 93.1341 23.2889 93.0482 23.5693C92.6486 24 92.434 24.5685 92.4499 25.1539C92.285 25.8007 92.2177 26.4683 92.2503 27.1347C92.2177 27.8666 92.2848 28.5995 92.4499 29.3135C92.6161 29.8534 92.8159 30.3826 93.0482 30.898L94.2447 32.0865C94.8814 32.3322 95.5562 32.4662 96.2391 32.4825C96.922 32.4662 97.5968 32.3322 98.2335 32.0865C98.5158 32.0011 98.7727 31.8481 98.9813 31.6408C99.19 31.4335 99.3441 31.1784 99.4301 30.898C99.8296 30.4673 100.044 29.8989 100.028 29.3135C100.028 28.5214 100.228 27.729 100.228 27.1347Z" fill="#224497"/>
<path d="M113.59 33.4734C113.59 33.6715 113.59 33.6715 113.391 33.6715H112.194C112.168 33.6721 112.141 33.6674 112.117 33.6576C112.092 33.6479 112.07 33.6333 112.052 33.6148C112.033 33.5963 112.018 33.5742 112.008 33.5499C111.999 33.5256 111.994 33.4995 111.994 33.4734V33.2752L110.798 30.1059C110.598 29.7098 110.598 29.5117 110.399 29.1156C110.2 28.9174 110 28.5214 109.801 28.3232C109.706 28.2023 109.585 28.104 109.447 28.0355C109.309 27.967 109.157 27.93 109.003 27.9271C108.803 27.729 108.405 27.729 108.006 27.729H106.809V33.4734H105.214V21.1924C105.2 21.0849 105.211 20.9757 105.246 20.8729C105.28 20.7701 105.338 20.6762 105.413 20.5982C105.613 20.4 105.613 20.4 105.812 20.4H110C110.492 20.4116 110.972 20.5479 111.396 20.7961C111.795 20.9943 112.194 21.1922 112.393 21.5885C112.636 21.8906 112.837 22.2236 112.991 22.5788C113.154 22.953 113.223 23.3609 113.191 23.7672C113.223 24.1736 113.154 24.5815 112.991 24.9557C112.792 25.3518 112.792 25.5499 112.393 25.946C112.194 26.1442 111.994 26.5402 111.595 26.7384C111.196 26.9366 110.997 27.1345 110.598 27.1345C110.798 27.1345 110.997 27.3326 111.197 27.5305C111.396 27.7284 111.595 27.9266 111.595 28.1248C111.795 28.3229 111.795 28.5208 111.994 28.9172C112.194 29.1153 112.194 29.5114 112.393 29.9074L113.589 32.8786C113.589 33.0768 113.789 33.2747 113.789 33.4728C113.589 33.2747 113.589 33.2747 113.589 33.4728L113.59 33.4734ZM110.997 24.1636C110.986 23.6751 110.848 23.1978 110.598 22.7769C110.399 22.3809 110 22.1827 109.402 21.9846C109.293 21.9978 109.184 21.987 109.08 21.9527C108.977 21.9184 108.882 21.8616 108.803 21.7864H106.61V26.1444H108.405C108.814 26.1758 109.224 26.1077 109.601 25.9463C110 25.7481 110.2 25.7481 110.399 25.5502C110.521 25.456 110.62 25.3359 110.689 25.1988C110.758 25.0617 110.795 24.911 110.798 24.7578C110.937 24.5913 111.008 24.3794 110.997 24.1636Z" fill="#224497"/>
<path d="M124.16 21.3906V21.9848C124.161 22.011 124.156 22.037 124.146 22.0613C124.136 22.0856 124.122 22.1077 124.103 22.1262C124.084 22.1448 124.062 22.1593 124.038 22.1691C124.013 22.1788 123.987 22.1836 123.96 22.183H119.972V33.6715H118.376V22.1827H114.388L114.188 21.9846V20.7961C114.188 20.7699 114.193 20.7439 114.202 20.7197C114.212 20.6954 114.227 20.6733 114.246 20.6548C114.264 20.6364 114.286 20.6218 114.311 20.6121C114.335 20.6023 114.362 20.5976 114.388 20.5982H123.96L124.16 20.7964V21.3906Z" fill="#224497"/>
<path d="M33.8737 41.9303C33.6664 42.2251 33.3765 42.4463 33.004 42.5938C32.6343 42.7384 32.2029 42.8108 31.71 42.8108C31.2114 42.8108 30.7688 42.6953 30.3823 42.4644C29.9958 42.2307 29.6961 41.8997 29.4832 41.4712C29.2731 41.0428 29.1653 40.5462 29.1597 39.9815V39.4515C29.1597 38.5362 29.3739 37.8268 29.8025 37.3233C30.2338 36.8198 30.8389 36.568 31.6175 36.568C32.2561 36.568 32.7701 36.7307 33.1595 37.0562C33.5488 37.3789 33.7869 37.838 33.8737 38.4333H33.067C32.9158 37.6293 32.434 37.2273 31.6217 37.2273C31.0811 37.2273 30.6708 37.4165 30.3907 37.7948C30.1134 38.1704 29.9734 38.7157 29.9706 39.4307V39.9272C29.9706 40.6088 30.1274 41.1513 30.4411 41.5547C30.7548 41.9553 31.1792 42.1556 31.7142 42.1556C32.0167 42.1556 32.2814 42.1222 32.5082 42.0554C32.7351 41.9887 32.9228 41.876 33.0712 41.7174V40.3529H31.6553V39.7019H33.8737V41.9303Z" fill="#224497"/>
<path d="M37.466 40.2694H36.0291V42.7273H35.2182V36.6515H37.2433C37.9323 36.6515 38.4617 36.8072 38.8314 37.1188C39.204 37.4304 39.3902 37.8839 39.3902 38.4792C39.3902 38.8576 39.2866 39.1872 39.0793 39.4682C38.8749 39.7492 38.5892 39.9592 38.2222 40.0983L39.6591 42.6772V42.7273H38.7936L37.466 40.2694ZM36.0291 39.6143H37.2685C37.669 39.6143 37.9869 39.5113 38.2222 39.3055C38.4603 39.0996 38.5794 38.8242 38.5794 38.4792C38.5794 38.1036 38.4659 37.8157 38.239 37.6154C38.015 37.4151 37.69 37.3136 37.2643 37.3108H36.0291V39.6143Z" fill="#224497"/>
<path d="M45.2303 39.8855C45.2303 40.4808 45.1294 41.0011 44.9278 41.4462C44.7261 41.8885 44.4404 42.2265 44.0707 42.4602C43.7009 42.6939 43.2696 42.8108 42.7766 42.8108C42.2949 42.8108 41.8677 42.6939 41.4952 42.4602C41.1226 42.2238 40.8327 41.8885 40.6255 41.4545C40.421 41.0178 40.316 40.5128 40.3104 39.9398V39.5016C40.3104 38.9174 40.4126 38.4013 40.6171 37.9534C40.8215 37.5055 41.11 37.1633 41.4826 36.9269C41.8579 36.6876 42.2864 36.568 42.7682 36.568C43.2584 36.568 43.6897 36.6862 44.0623 36.9227C44.4376 37.1564 44.7261 37.4972 44.9278 37.9451C45.1294 38.3902 45.2303 38.909 45.2303 39.5016V39.8855ZM44.4278 39.4932C44.4278 38.7727 44.2821 38.2205 43.9908 37.8366C43.6995 37.4499 43.292 37.2565 42.7682 37.2565C42.2584 37.2565 41.8565 37.4499 41.5624 37.8366C41.2711 38.2205 41.1212 38.7546 41.1128 39.439V39.8855C41.1128 40.5838 41.2599 41.1332 41.554 41.5338C41.8509 41.9317 42.2584 42.1306 42.7766 42.1306C43.2976 42.1306 43.7009 41.9428 43.9866 41.5672C44.2723 41.1889 44.4194 40.6478 44.4278 39.9439V39.4932Z" fill="#224497"/>
<path d="M50.7468 36.6515V40.7827C50.744 41.3558 50.5619 41.8245 50.2006 42.189C49.8421 42.5534 49.3547 42.7579 48.7385 42.8024L48.5242 42.8108C47.8548 42.8108 47.3212 42.6313 46.9235 42.2724C46.5257 41.9136 46.3241 41.4198 46.3185 40.791V36.6515H47.1167V40.766C47.1167 41.2056 47.2386 41.5477 47.4823 41.7926C47.7259 42.0346 48.0733 42.1556 48.5242 42.1556C48.9808 42.1556 49.3295 42.0346 49.5704 41.7926C49.8141 41.5505 49.9359 41.2097 49.9359 40.7702V36.6515H50.7468Z" fill="#224497"/>
<path d="M52.8265 40.3487V42.7273H52.0198V36.6515H54.276C54.9455 36.6515 55.4692 36.8212 55.8474 37.1606C56.2283 37.5 56.4188 37.9492 56.4188 38.5084C56.4188 39.0982 56.2325 39.5531 55.86 39.873C55.4903 40.1901 54.9595 40.3487 54.2676 40.3487H52.8265ZM52.8265 39.6935H54.276C54.7074 39.6935 55.0379 39.5934 55.2676 39.3931C55.4973 39.19 55.6121 38.8979 55.6121 38.5168C55.6121 38.1551 55.4973 37.8658 55.2676 37.6488C55.0379 37.4318 54.7228 37.3191 54.3222 37.3108H52.8265V39.6935Z" fill="#224497"/>
</g>
<defs>
<clipPath id="clip0_14:2521">
<rect width="124" height="51" fill="white"/>
</clipPath>
</defs>
</svg>
